/* XPM */
static char *_62fc5b4a2bb43f8d2f9af783ac22266KvypTxKFMSGkez7N[] = {
/* columns rows colors chars-per-pixel */
"50 50 4 1 ",
"  c #59413E",
". c #514047",
"X c #77514C",
"o c #8D5D57",
/* pixels */
"....XXXXXXXXXXXXXXX.........XXXXXXXXXXXXXXX.......",
"....XXXXXXXXXXXXXXX.........XXXXXXXXXXXXXXX.......",
"....XXXXXXXXXXXXXXX.........XXXXXXXXXXXXXXX.......",
"....XXXXXXXXXXXXXXX.........XXXXXXXXXXXXXXX.......",
"....XXXXXXXXXXXXXXX.........XXXXXXXXXXXXXXX.......",
"....XXXXXXXXXXXXXXX.........XXXXXXXXXXXXXXX.......",
"XXXXXXXXXXXXXXXXXXXooo...XXXXXXXXXXXXXXXXXXooo....",
"XXXXXXXXXXXXXXXXXXXooo...XXXXXXXXXXXXXXXXXXooo....",
"XXXXXXXXXXXXXXXXXXXooo...XXXXXXXXXXXXXXXXXXooo....",
"XXXXXXXXXXXXXXXXXXXooo...XXXXXXXXXXXXXXXXXXooo....",
"XXXXXXXXXXXXXXXXXXXooo...XXXXXXXXXXXXXXXXXXooo....",
"XXXXXXXXXXXXXXXXXXXooo...XXXXXXXXXXXXXXXXXXooo....",
"XXXXXXXXXXXXXXXXXXXooo...XXXXXXXXXXXXXXXXXXooo....",
"XXXXXXXXXXXXXXXXXXXooo...XXXXXXXXXXXXXXXXXXooo....",
"XXXXXXXXXXXXXXXXXXXooo...XXXXXXXXXXXXXXXXXXooo....",
"XXXXXXXXXXXXXXXXXXXooo...XXXXXXXXXXXXXXXXXXooo....",
"XXXXXXXXXXXXXXXXXXXooo...XXXXXXXXXXXXXXXXXXooo....",
"XXXXXXXXXXXXXXXXXXXooo...XXXXXXXXXXXXXXXXXXooo....",
"XXXXXXXXXXXXXXXXoooooo...XXXXXXXXXXXXXXXoooooo....",
"    ooooooooooooooo   ...   ooooooooooooooo   ....",
"    ooooooooooooooo   ...   ooooooooooooooo   ....",
"....               .........               .......",
"....               .........               .......",
"....XXXXXXXXXXXXXXX.........XXXXXXXXXXXXXXX.......",
"....XXXXXXXXXXXXXXX.........XXXXXXXXXXXXXXX.......",
"XXXXXXXXXXXXXXXXXXXooo...XXXXXXXXXXXXXXXXXXooo....",
"XXXXXXXXXXXXXXXXXXXooo...XXXXXXXXXXXXXXXXXXooo....",
"XXXXXXXXXXXXXXXXXXXooo...XXXXXXXXXXXXXXXXXXooo....",
"XXXXXXXXXXXXXXXXXXXooo...XXXXXXXXXXXXXXXXXXooo....",
"XXXXXXXXXXXXXXXXXXXooo...XXXXXXXXXXXXXXXXXXooo....",
"XXXXXXXXXXXXXXXXXXXooo...XXXXXXXXXXXXXXXXXXooo....",
"XXXXXXXXXXXXXXXXXXXooo...XXXXXXXXXXXXXXXXXXooo....",
"XXXXXXXXXXXXXXXXXXXooo...XXXXXXXXXXXXXXXXXXooo....",
"XXXXXXXXXXXXXXXXXXXooo...XXXXXXXXXXXXXXXXXXooo....",
"XXXXXXXXXXXXXXXXXXXooo...XXXXXXXXXXXXXXXXXXooo....",
"XXXXXXXXXXXXXXXXXXXooo...XXXXXXXXXXXXXXXXXXooo....",
"XXXXXXXXXXXXXXXXXXXooo...XXXXXXXXXXXXXXXXXXooo....",
"XXXXXXXXXXXXXXXXoooooo...XXXXXXXXXXXXXXXXoooooo...",
"XXXXXXXXXXXXXXXXoooooo...XXXXXXXXXXXXXXXXoooooo...",
"XXXXXXXXXXXXXXXXoooooo...XXXXXXXXXXXXXXXXoooooo...",
"    ooooooooooooooo   ...   ooooooooooooooo   ....",
"    ooooooooooooooo   ...   ooooooooooooooo   ....",
"    ooooooooooooooo   ...   ooooooooooooooo   ....",
"    ooooooooooooooo   ...   ooooooooooooooo   ....",
"....               .........               ......."
"....               .........               ......."
"....               .........               ......."
"....               .........               ......."
"....               .........               ......."
"....               .........               ......."
};
