/* XPM */
static char *_53f8c6e29b64428be64b754fd1a7b63Pze5JBx4ERAFfbu4[] = {
/* columns rows colors chars-per-pixel */
"60 60 204 2 ",
"   c #000000",
".  c #0A0604",
"X  c #0C0906",
"o  c #0F0C08",
"O  c #110B07",
"+  c #130D08",
"@  c #190F0A",
"#  c #15110C",
"$  c #1B130D",
"%  c #1C1710",
"&  c #1E1911",
"*  c #24150D",
"=  c #2A180F",
"-  c #231D14",
";  c #2C1A11",
":  c #331E14",
">  c #282116",
",  c #2D2519",
"<  c #3B2216",
"1  c #3E2419",
"2  c #33291C",
"3  c #342B1D",
"4  c #392F20",
"5  c #3C3222",
"6  c #4D2C13",
"7  c #422619",
"8  c #46291B",
"9  c #4B2C1C",
"0  c #512F1F",
"q  c #493A19",
"w  c #5A331B",
"e  c #423625",
"r  c #453826",
"t  c #473B28",
"y  c #4A3D2A",
"u  c #553221",
"i  c #5B3522",
"p  c #5D3826",
"a  c #603724",
"s  c #643A26",
"d  c #6B3D26",
"f  c #673C28",
"g  c #6B3E29",
"h  c #5C491C",
"j  c #4E402C",
"k  c #53442E",
"l  c #574831",
"z  c #5B4B33",
"x  c #6E402A",
"c  c #754426",
"v  c #73432B",
"b  c #79462E",
"n  c #7E492E",
"m  c #735B2B",
"M  c #604F36",
"N  c #7F4930",
"B  c #605036",
"V  c #655339",
"C  c #6E5B3E",
"Z  c #715D3E",
"A  c #7B6434",
"S  c #725F40",
"D  c #776243",
"F  c #7B6544",
"G  c #7F6947",
"H  c #844A23",
"J  c #88512C",
"K  c #844C32",
"L  c #894E34",
"P  c #8C5135",
"I  c #925437",
"U  c #945538",
"Y  c #995738",
"T  c #9C5A3B",
"R  c #A25D3A",
"E  c #826938",
"W  c #8E7134",
"Q  c #95783B",
"!  c #B47E2D",
"~  c #B9782E",
"^  c #A56437",
"/  c #AB6637",
"(  c #AC6B34",
")  c #A46239",
"_  c #AB623A",
"`  c #B36D35",
"'  c #B2663A",
"]  c #B56939",
"[  c #BC6D3A",
"{  c #AF7631",
"}  c #B77435",
"|  c #C36F3A",
" . c #C47835",
".. c #CB743A",
"X. c #D67E37",
"o. c #D67939",
"O. c #E27E38",
"+. c #806840",
"@. c #886F43",
"#. c #866F4B",
"$. c #8E7547",
"%. c #8D754F",
"&. c #997C4B",
"*. c #947B53",
"=. c #9A7F56",
"-. c #A76745",
";. c #BE862A",
":. c #A18033",
">. c #B9933C",
",. c #DB9D1F",
"<. c #D0A71D",
"1. c #E7A819",
"2. c #F7AB1E",
"3. c #F8AE1C",
"4. c #F2BE13",
"5. c #FABC16",
"6. c #F4B31E",
"7. c #F9B319",
"8. c #F4BA1C",
"9. c #CA8829",
"0. c #D58B2B",
"q. c #D89524",
"w. c #C78232",
"e. c #DC8633",
"r. c #C89E3E",
"t. c #E39F20",
"y. c #ED952E",
"u. c #ED9A2B",
"i. c #F29E26",
"p. c #F0972C",
"a. c #F19C28",
"s. c #E78337",
"d. c #EA8636",
"f. c #EB8A34",
"g. c #E78239",
"h. c #E88338",
"j. c #EB9131",
"k. c #EC953C",
"l. c #EEA327",
"z. c #EEA028",
"x. c #F2A424",
"c. c #F3AC21",
"v. c #FFC20D",
"b. c #FFCA0C",
"n. c #FFD409",
"m. c #FBC413",
"M. c #FDC21C",
"N. c #FCD61B",
"B. c #FCC123",
"V. c #F5C42E",
"C. c #FBC22D",
"Z. c #FACE2C",
"A. c #FBD424",
"S. c #FBD922",
"D. c #FAD22D",
"F. c #FAC234",
"G. c #F9CA33",
"H. c #F9C23B",
"J. c #F8C93C",
"K. c #FAD333",
"L. c #9D8258",
"P. c #B38D4B",
"I. c #A98A55",
"U. c #A1845A",
"Y. c #A5885C",
"T. c #AA8C5F",
"R. c #AD8F62",
"E. c #AF9062",
"W. c #B59565",
"Q. c #BC9B69",
"!. c #CD8F4E",
"~. c #C79E43",
"^. c #C89A59",
"/. c #EB9649",
"(. c #D1A54C",
"). c #CBA358",
"_. c #EDA44F",
"`. c #F0B24F",
"'. c #EDA858",
"]. c #C09F6B",
"[. c #D19E6B",
"{. c #C5A266",
"}. c #C2A06C",
"|. c #C9A571",
" X c #CDA972",
".X c #D0AC74",
"XX c #D5B177",
"oX c #DBB47A",
"OX c #E9B568",
"+X c #E5AA7A",
"@X c #EFB874",
"#X c #F7C345",
"$X c #F8C342",
"%X c #F7C34C",
"&X c #F8C44A",
"*X c #F8CB49",
"=X c #F6C453",
"-X c #F7C852",
";X c #F6C55B",
":X c #F5C563",
">X c #F4C56B",
",X c #F2C574",
"<X c #F1C57B",
"1X c #F0C683",
/* pixels */
"                                                                                                                        ",
"                                                                                                                        ",
"                                . X % 2 e 5 e y r - X . X % > 3 5 e 4 - o                                               ",
"                    o o # % > - # + % , e 5 e t r 4 $ % $ 3 e V z C %.%.V 5 # X                                         ",
"              . # & & # # % , 5 2 > 4 y V z V C C V z C D G C V z C %.%.V 5 5 , - # X                                   ",
"            . X & & & % % & 4 e k l V z V z V C C V z C D G S V z C %.%.#.S S z y k k t -                               ",
"            + % 3 3 e 5 5 t l =XK.D.S.Z.Z.F.J.#X#X$X$XC D G C B z C %.%.#.S C C V G C S y e %                           ",
"        # # 2 4 j j l k (.J.J.J.D.A.S.Z.D.G.H.$X$XZ.N.S.K.&X&X$XG.*X-X#.#.S C S V G +.%.S =.%.G %                       ",
"        & & j z V Q P.!.$XJ.J.J.D.A.V.Z.Z.G._.`.G.A.N.S.K.&X#X$XF.J.*X-X=X#X%X=XV G G %.C =.Y.=.k                       ",
"      . 5 5 Z A P.).%X$XJ.J.J.J.A.N.n.z.l.y.y.u.u.6.8.8.l.s.g.s.u.b.B.F.#X#X#X#X`.=X:X%.C =.Y.T.C ,                     ",
"    X $ j 5 Z $.).=X_.8.v.b.b.y.c.c.6.l.l.y.f.u.u.6.8.8.x.d.g.g.j.j.j.u.v.v.B.F.J.&X%X=X;X=.Y.T.U.D z                   ",
"    % > , j I.^.'.M.5.m.v.y.y.y.c.c.6.z.l.y.j.u.u.6.8.8.l.d.g.g.j.j.j.s.h.f.x.v.v.F.#X=X$X:XY.T.W.U.%.-                 ",
"    , 2 j *.<X:X5.m.d.v.f.y.y.y.c.c.n.l.x.j.j.u.p.6.8.<.;.) g.s.+Xy.f.s.h.h.h.h.f.i.v.8.F.;X:X:X,XW.T.k                 ",
"    2 z #.1X>X%X5.m.5.h.f.y.y.y.j.j.d.d.m.d.d.u.p.6.8.8.l.^ g.h.+Xf.+XT +Xh.h.h.h.d.v.m.v.H.;X:X:X,X].*.-               ",
"    2 S %.>XB.v.d.v.v.h.d.d.v.d.g.s.s.s.s.T R j.y.y.h.O.h.o.T ] ] ' ' ' ] | O.h.T v.m.v.v.v.C.F.:X>X<XR.z               ",
"  + 4 S #.=Xv.v.v.h.h.d.T v.v.v.m.g.g.s.s.h.h.X.g...[ ] ] ' _ R R T T Y R Y R R ..h.h.f.i.5.v.m.=X>X<X<XW.l             ",
"  # 5 Z F F.v.b.b.5.v.p.m.p.d.m.T T g.g.g...[ _ _ b b v I I R R R R R T Y R R Y +X_ | O.d.p.5.5.&X:X,X<X}.#.+           ",
"  $ 3 V W v.v.b.5.5.h.i.h.T T T [ ) R T T T R T R N b g P g 8 < : v b L s f d d L Y +X| +Xd.i.v.B.=X,X<X XT.3           ",
"  - Z .X=Xv.v.b.5.5.O.h.h.O.' R T T T T T R R R I i 0 w I g 8 1 : v v K a w 0 a L R R ' O.d.j.5.v.H.:X,X<XQ.z           ",
"  , Z .XF.v.b.b.5.5.m.O...| T T T T b g s L v u : * * = : $ X . . = 7 0 @ * < < 6 a d R d.O.d.5.v.M.=X,X1XXXL.>         ",
"  F L.<Xv.v.v.b.m.m.h.T g.' T T T U v f 0 u : : * * . . .   . . . * < 0 @ $ : : 8 w b R o.O.d.p.v.5.F.:X<XoX|.y         ",
"  E.XX<Xv.5.v.b.4.m.g.' g.T T Y U U L v 8 8 = * . O   . .         * : 8 O * : = = < w L | O.O.f.v.v.M.[.,X1X.XC         ",
"  T. X,Xv.v.v.b.m.m.T g.g.T T P P L K f 7 7 = @     .             . . @ . . = = = : 1 < w H O.O.v.v.v.-.[.<XXX*.        ",
"  T..X,Xv.v.b.m.x.z.g.' g.T Y L P P L g 0 9 % O           .           . . .   . = 6 w = < 6 O.O.i.v.v.v.%X<XoX}.        ",
"  W.oX<Xv.v.5.v.l.l.s.T h.T T P L L K i + +                                     . = w * ; 7 O.d.d.v.v.v.F.<XoX X        ",
"  W.oX<Xv.v.v.+Xc.c.s./ Y T T n L P I g = +                                 u   . * w @ * : o.O.d.5.v.v.5.<XoXXX        ",
"  =.oX<X5.5.v.v.2.c.h._ T Y Y f K I U g < O                       + + +           : c < @ ; R d.h.y.v.v.v.,X.X.X        ",
"  F XX<Xm.b.b.n.;.w.h.[ R T x ; L I U v 7 $                       + @ % X       @ 8 0 6 @ = R d.h.f.v.5.v.,X|.|.        ",
"  V XX,XC.b.v.b.c.l.{ o.R Y g : N K L s 7 @                       + * ; $ .     : u a 9 * = R O.h.h.h.v.v.,XY.U.        ",
"  y XX<XH.b.b.b.7.x.{ s.] R g a N b L b n a 8 @                   + * : = @ 7 0 s d w 0 : 7 R O.h.d.v.v.5.>XG G         ",
"  r XX<X;Xm.v.b.b.x.~ f. .R g g N N K g b i 0 : =       + + @ + + * = ; 1 : g a a g g f i s T h.h.h.v.v.5.,Xl z         ",
"  2 ].XX>XB.v.b.b.x.! f.X.R s s b K v s b i a 0 i = . @ = : ; : 9 u u 9 9 1 g i a f a s s c T h.O.h.+Xv.v.,Xl z         ",
"  $ T. X<X*X} b.b.2.! f.f...x d a n g s b w s 0 g i 0 ; ; < ; < 8 i p i x x x u p x f v K Y T d.h.s.5.v.v.,Xz z         ",
"  o F E.<X-XG.b.b.{ ! f.f.s.c d s R I L K v b s v s s 9 8 < , 7 0 0 u u x x x p f v x U U P ' h.h.h.v.v.8.,Xz l         ",
"    k %.W.>X=XM.b.{ ;.f.f.d.} R R R R I L L P L K g i 9 8 1 , 1 u u u 9 x b K P P U U U T T ..s.h.h.v.v.%X<XB k         ",
"    5 y V &.>X$Xv.v.m.) ^ f.X.` R R R R L L P P P b N g s 9 8 0 s s s f b N K P K P P U T 9.s.g.h.d.v.v.:X<XD B         ",
"    > 4 k C <X:XH.v.v.v.^ y.f.} R R R R n s b L P b N x a u 9 s x b b N U P P N b L I P ~ 0.g.g.h.d.v.M.>X1X*.S         ",
"      - 5 M W.,X;XC.v.v.T x.j. ._ R ' / J n J J P b b x x i i g v v b N P K N b T L I ^ 9.j.g.g.h.a.v.F.>XXX X+.        ",
"      # 3 k T.OX:XH.v.v.v.) ) j.| _ ( ( ' R ' ' / ) K v x v v x u u u v L K N b v L P ( e.h.g.h.h.v.v.#X,X.X}.z         ",
"        > y Y.}.>X;XF.v.v.v.p.x.i.q.9. .,.0.9.' ] ` } ~ { v b v f x K P K K N N v / ( T d.h.h.h.v.v.M.=X<X XY.          ",
"        # 5 L.].,X:X%XF.M.) p.a.i.i.i.q.t.q.0. .` ] [ [ ` ~ } ~ ~ ( K L J K K ] ~ q.1.v.d.h.h.h.v.v.H.:X XQ.%.          ",
"          , %.Q.,X:X;X&XH.B.v.a.5.x.a.i.2.x.2.d...w.w. .] ' ] ] } ~ ( / / ~ ,.m.T T m.f.h.h.h.h.v.m.%X,X|.Y.z           ",
"          # C T.,X>X;X#X=X=XJ.5.i.p.i.i.2.2.2.i.y.p.p.p.d.f.d.d.f.d.f.f.f.j.f.f.d.d.s.h.h.h.v.v.i.B.).I.Y.%.$           ",
"            % D W A A r.=X=X&XF.B.5.2.i.2.2.2.x.a.2.x.x.f.d.f.d.d.f.f.f.f.f.f.f.d.h.h.h.h.h.h.y.H.;Xz l y V             ",
"              e j m m >.;X=X$XF.C.H.F.B.7.3.2.x.~ 2.x.x.f.R d.f.f.f.f.j.f.j.f.f.h.h.d.h.v.M.#X:X>XQ.5 5 5 t             ",
"              & 5 5 m >.=X;X#XF.C.H.$XH.5.v.7.2.a.2.x.x.d.f.d.d.d.f.f.j.f.j.f.f./.F.&X=X%X=XOX,XW.D 2 , 3 %             ",
"                  & , >.;X;X~.~.r.;X;X;X;XH.B.v.v.7.2.x.f.d.d.d.f.R R y.f.k._.;X@X:X;X=X%X=X;XW.W.D 2 > ,               ",
"                    o 3 G :X:.{ :.;X;X>X:X;X&XC.B.v.v.7.j.d.d.d.f.k._.'.`.OXOX:X@X>X:X=X%X=X=.W.W.Z > - $               ",
"                        k D z m h W >.>X>X;X%XV.H.F.H.H.=X=X&X`._.'.%X'.=X;X;X:X>X>X;X=X%X=X=.W.W.S > % X               ",
"                            % 2 q m W OX,X>X:XJ.#X8.H.H.=X%X%X%X$X=X%X=X;X:X>XW.Q.>XY.#.+.#.*.W.W.C - #                 ",
"                              + $ e E OX>X>X:X#X%X%X-X-X=X=X;XS V @.$.$.G *.U.W.Q.W.Y.#.G #.L.W.=.5                     ",
"                                  # 3 *.].{.>X#X%X%X>X%.#.#.S F V #.#.#.G *.U.W.Q.W.Y.#.G D k ,                         ",
"                                      V W.{.W.A D D %.%.#.#.D D V G #.#.G *.U.W.W.=.z                                   ",
"                                        j F L.+.D D %.%.#.#.D D V G #.#.G #.C r                                         ",
"                                              & k D %.%.#.#.D D V V r -                                                 ",
"                                                                                                                        ",
"                                                                                                                        ",
"                                                                                                                        ",
"                                                                                                                        ",
"                                                                                                                        "
};
