/* XPM */
static char *_c0746df27cf4272f5f3ceb213a914182P8EUSMsIWKORPs9[] = {
/* columns rows colors chars-per-pixel */
"60 60 210 2 ",
"   c #040302",
".  c #0A0604",
"X  c #0C0906",
"o  c #0F0C08",
"O  c #110A07",
"+  c #140D09",
"@  c #1A0F0A",
"#  c #16110C",
"$  c #1D120C",
"%  c #1E1810",
"&  c #24150D",
"*  c #29180F",
"=  c #361F0D",
"-  c #231A12",
";  c #2C1A11",
":  c #331E14",
">  c #292217",
",  c #372115",
"<  c #3B2216",
"1  c #3F2418",
"2  c #402517",
"3  c #422619",
"4  c #46291B",
"5  c #4C2C1C",
"6  c #512F1F",
"7  c #5F3517",
"8  c #53311F",
"9  c #58321D",
"0  c #553221",
"q  c #5B3522",
"w  c #5E3825",
"e  c #603724",
"r  c #643A26",
"t  c #6B3D26",
"y  c #673C28",
"u  c #6B3E28",
"i  c #5B4B33",
"p  c #6E4129",
"a  c #754426",
"s  c #74432B",
"d  c #79462E",
"f  c #7D482E",
"g  c #7F4930",
"h  c #655339",
"j  c #6E5B3E",
"k  c #786344",
"l  c #7F6947",
"z  c #814B29",
"x  c #88512A",
"c  c #834C31",
"v  c #894F33",
"b  c #8C5135",
"n  c #925437",
"m  c #995637",
"M  c #935538",
"N  c #9C5A3B",
"B  c #A25D3B",
"V  c #B47E2D",
"C  c #BB7B2F",
"Z  c #AC6637",
"A  c #A46239",
"S  c #AA623A",
"D  c #AB6B38",
"F  c #B36E37",
"G  c #B2663A",
"H  c #B56939",
"J  c #BC6D3A",
"K  c #AF7631",
"L  c #AF7039",
"P  c #BA7336",
"I  c #BB7B32",
"U  c #B6743A",
"Y  c #C36F3A",
"T  c #C47835",
"R  c #CB743A",
"E  c #D67E37",
"W  c #D67939",
"Q  c #E27E38",
"!  c #876F4B",
"~  c #8D754D",
"^  c #947953",
"/  c #9A7E56",
"(  c #A76745",
")  c #BE862A",
"_  c #D0A71D",
"`  c #E7A819",
"'  c #F7AB1E",
"]  c #F8AE1C",
"[  c #F2BE13",
"{  c #FABC16",
"}  c #F4B31E",
"|  c #F9B319",
" . c #F4BA1C",
".. c #CA882A",
"X. c #D58B2B",
"o. c #D99724",
"O. c #DC8633",
"+. c #E39F20",
"@. c #ED952E",
"#. c #ED9A2B",
"$. c #F29E26",
"%. c #F0972C",
"&. c #F19C28",
"*. c #EA8636",
"=. c #EB8A34",
"-. c #E7833A",
";. c #E88338",
":. c #EB9131",
">. c #EC953C",
",. c #EEA327",
"<. c #EEA028",
"1. c #F2A424",
"2. c #F3AC21",
"3. c #F8BE36",
"4. c #FFC20D",
"5. c #FFC90C",
"6. c #FFD608",
"7. c #FDC313",
"8. c #FECA14",
"9. c #FDC21D",
"0. c #FCD61B",
"q. c #FCC223",
"w. c #F5C42E",
"e. c #FBC12B",
"r. c #FACE2C",
"t. c #FBD424",
"y. c #FBD922",
"u. c #FAD22D",
"i. c #F9C335",
"p. c #F9CA33",
"a. c #F7C23A",
"s. c #F9C33B",
"d. c #F8C93C",
"f. c #FAD336",
"g. c #9F8359",
"h. c #AE8E55",
"j. c #A78A5B",
"k. c #AE9062",
"l. c #B29363",
"z. c #BF9D6B",
"x. c #CB9455",
"c. c #EA8E41",
"v. c #EB9345",
"b. c #E79B58",
"n. c #F09D58",
"m. c #D6AB4D",
"M. c #D7A755",
"N. c #DCB154",
"B. c #EDA44F",
"V. c #F1BA4D",
"C. c #EDAC5A",
"Z. c #F0A65C",
"A. c #F0B558",
"S. c #F0BE59",
"D. c #C78C62",
"F. c #C99963",
"G. c #D29C68",
"H. c #C9A466",
"J. c #C5A36E",
"K. c #D1AB66",
"L. c #D2AC6A",
"P. c #DAB268",
"I. c #C9A670",
"U. c #CEA973",
"Y. c #D3AE76",
"T. c #D5B177",
"R. c #D9B375",
"E. c #DEB178",
"W. c #DFB97D",
"Q. c #E6AB6C",
"!. c #E5B864",
"~. c #EDBD64",
"^. c #ECB769",
"/. c #F1B362",
"(. c #E5AA7A",
"). c #E3B574",
"_. c #E4B575",
"`. c #EDBB73",
"'. c #E1B97E",
"]. c #EDB979",
"[. c #F0BF71",
"{. c #F7C346",
"}. c #F8C342",
"|. c #F8CA46",
" X c #F7C34C",
".X c #F8C44A",
"XX c #F6C453",
"oX c #F6C758",
"OX c #F5C45B",
"+X c #EFC26F",
"@X c #F4C463",
"#X c #F4C863",
"$X c #F2C56C",
"%X c #EDC274",
"&X c #EDC37C",
"*X c #F2C674",
"=X c #F0C57B",
"-X c #E5BD81",
";X c #E9C181",
":X c #EAC180",
">X c #EEC382",
",X c #EEC385",
"<X c #EFC585",
"1X c #EFC685",
"2X c #EFC586",
"3X c #EFC588",
"4X c #F0C583",
"5X c #F0C586",
"6X c #F1C786",
"7X c #F0C687",
/* pixels */
"5X2X6X6X3X-X6X6X5X5X2X2X1X&X4X>X4X2X>X4X5X2X2X1X>X4X4X>X4X4X4X>X2X1X1X>X4X>X4X2X2X1X1X1X5X5X6X6X5X6X6X3X6X6X3X6X3X6X6X6X",
"2X5X6X1X2X1X6X6X>X1X1X1X4X4X4X4X>X4X4X2X5X2X2X1X>X4X>X6X4X>X4X5X2X2X>X>X4X4X6X>X>X4X>X1X2X5X5X2X3X6X6X3X6X3X3X6X6X6X3XE.",
"5X5X6X6X6X6X6X6X4X1X1X1X>X4X2X4X5X5X-X'.W.T.-X-X&X;X'.4X'.>X'.>X;X;X;X;X'.2X>X6X>X4X4X>X>X1X2X5X3X6X1X3X6X3X6Xn.n.n.n.6X",
"5X5X5X6X5X5X5X2X>X1X1X1X4X>X4X-X1X].-X'.W.T.W.&X-X;X>X-X;X2X&X>X;X;X;X;X>X&X&X'.4X>X4X4X1X1X4X>X1X6X_.3X6X6Xn.n.D.D.3X3X",
"5X5X2X2X5X2X2X1X>X1X>X2X,X2X;X;X&X-XW.I.F.k.l.J.Y.Y.Y.T.'.W.W.-X'.W.&X;X;X;X>X-X'.>X'.4X4X4X1X>X2X2XG.7X3X3X6XD.D.6X6X6X",
"6X5X2X1X6X1X2X2X2X2X2XR.W.W.T.Y.R.U.J./ ~ i h j j h i j ! g.^ ^ j.j.U.-X;X>X>X-X&X&X&X&X].=X_.5XE.2X2X7X].F.3X6X3X6X3X6X",
"5X5X1X>X4X1X2X2X2XW.W.J.J.z.g.@Xf.u.y.r.f.i.d.{.{.{..Xj k ! j h i j ^ g.j.j.k.J.T.-X;X&X&X&X*X=X&X6X7X7X6X3X(.6XE.6X6X3X",
"6X5X1X1X4X1X'.R.W.T.U.k m.d.d.d.u.t.y.u.r.p.a.}.}.u.0.y.r..X.X}.i.|.OX~ ! j l ~ j.J.R.'.&X%X=X%X4X6X7X7X6X6X1X6X6X6X3X6X",
">X1X1X>X>X-XW.W.U.H.x.x.d.d.d.d.u.t.w.r.r.w.B.V.p.t.0.y.f.{.}.}.i.d.|.XXXX.X X@Xh ^ k.L.R.*X=X=X=X5X6X6X7X7X7X3X7X6X6X3X",
"6X1X1X6X'.W.W.R.K.x. X{.}.d.d.d.t.8.6.,.,.@.:.#.#.}  . .,.-.-.-.#.4.9.i.{.}.{.{.}.XX@Xj.h.&X=X=X4X5X6X2X7X7X7X7X7X3X6X6X",
">X2X2XT.Y.J.H.H.M.XXb.q.4.5.5.@.2.2. .#.,.@.:.#.#.}  . .1.*.-.Q :.:.@.@.4.4.q.i.s. XXXOX@XH.P.`.`.6X3X6X6X7X6X3X6X3X3X6X",
"6X2X2X2Xk.F.^.!./.9.4.7.4.@.@.@.2.2. .<.,.:.=.#.#.}  . .1.*.;.;.:.:.:.Q *.=.$.4.4.a..XOX.X@XK.K.'.6X3X6X6X3X6X6X6X3X3X6X",
"E.6X5X&X%X!.~.~.S.4.;.4.=.@.@.@.2.2.6.,.,.@.=.#.%.}  ._ ) A ;.;.(.:.:.*.;.;.;.;.*.$.{ q.i.OX@X$X*X-X2X5X6X7X6X6X3X6X3X6X",
"6X6X&X%X$X~.~.~.V.4.4.;.=.@.@.@.:.:.=.*.7.=.=.#.#.]  . .,.A ;.;.(.:.(.N (.;.;.;.;.*.4.4.4.a.OX@X*X4X].6X7X7XE.6X].6X6X6X",
"2X3X*X%X*X~.~.S.C.4.4.-.-.=.4.=.-.-.c.-.-.N N :.#.#.Q ;.;.W N H H G H B H Y ;.Q N 4.4.4.4.4.q.i.$X*X=X5X].(.6X6X6X6X3X6X",
"6X6X*X$X+X@X~.S.V.-.-.*.N 4.4.e.7.b.v.-.-.-.-.Q Q R J H H H B B B N B N N B N B R ;.*.=.$.4.{ 7.oX$X*X5X2X5X(.6X3X6X6XE.",
"5X5X*X$X!.~.~.OXV.{ 4.%.{ @.*.{ m B c.c.-.R J S B d f u M n B B B N N N N N B B (.S Y Q *.%.{ { .X$X*X=X7X7X7X7X3X6X6X6X",
"5X5X*X*X~.OX@XXX{.{ ;.$.*.N B N ( S B B N N B N B c f u n u 5 < : d f c r t t u c m (.Y (.*.$.{ q.XX$X=X1X6X1X7X6X6X3X5X",
"5X6X*X$X@XoX X8.{ { ;.;.;.Q G B N N m m B B B B n 9 9 q n u 5 : < d d c e 9 9 r v B B G *.*.%.{ 4.a.@X*X=X2X=X6X6X3X6X(.",
"E.6X~.*X@Xa.i.5.{ { 4.;.Y Y B B N B d u y v u 0 : & & * : & O     * < 5 @ & = : 5 e t B Q Q *.{ { 9.XX*X=X=X1X5X6X6X6X3X",
"6XE.*X$X X{ 4.6.7.7.-.N -.G N B N v u e 6 0 : : $ O               O * 3 @ & : : 4 7 u S Q Q *.%.4.4.i.@X*X&X=X6X3X6X6X3X",
"6X6X=X%Xi.4.4.5.[ 7.;.Z -.N N u u r c u 4 3 * & .                   . &   @ @ - * < 9 v Y Q Q =.4.4.9.G.$X&X*X5X6X3X6X6X",
"6X6X=X*Xq.4.4.8.8.7.N -.-.N N u u e d e 3 : @ O   X       >   .               X & = < < 9 z Q *.4.4.4.( ^.=X=X6X6X6X3X6X",
"6X6X&X*Xq.4.8.7.1.,.-.S ;.N N y u r c y 6 & .           .           .           . = 7 & : 6 Q Q 1.{ 7.4.OX*X*X6X3X3X6X4X",
"3X6X`.*X .4.9.4.1.1.-.N ;.N N y y w f 0 +   - % +       . .   . .   . X X .   . . @ 7 & : 3 Q *.=.{ 9.{ OX$X*X5X6X6X3X6X",
"].3X4X%Xq.7.q.(.2.2.;.S m N N e r y c e & . % # X .     . . .   .     + .     . & @ 7 @ & = W Q =.4.q.9.XX$X*X5X3X5X6X3X",
"6X&X=X+Xq.4.9.4.2.2.;.Z N N N 5 r y b y , . $ # .         .   .                 & & t = @ ; S Q *.%.V.9.XX$X*X5Xn.].6X3X",
"6X=X=X*Xq.4.8.r.) ) ;.J B m y & r p M s < . $ +         . . .                 .   : 6 5 @ ; B *.Q =.4.7.|.$X/.n.6X3X6X6X",
"6X).*X*Xa.5.8.4.2.,.K W B N u : c c b e 2 . @ +         o # # X               . . < q 5 $ * B Q ;.=.-.9.}.$X/.n.n.6X6X3X",
"6X=X=X$X X7.5.5.| 1.K ;.H B t e f f v d s ; X   .     . # # ; - -   X + .       O 5 6 6 < 3 B Q ;.;.7.9.s.$XG.5Xn.n.].3X",
"6X=X=X*X@Xp.7.5.5.1.V =.T B u t g c c s u 3 & O   o . +     . .   X + + @ & 6 q w u u u q r N ;.;.Q 4.9.e.$X5X5X3XD.6X3X",
"6X=X=X!.$X|.q.4.4.1.V =.E B y r s g s e s 8 5 < +       + $ & - : : 0 : * & 0 q e u w r t u N ;.;.;.(.4.4.*X5X6X6X3X6X6X",
"6X=X*X*X*XoXM.9.5.} V =.=.R p p e z s y u 0 q 6 & .   . $ > - ; ; 3 0 4 1 1 0 q w p y s c m N -.;.Q 3.4.4.*X6X6X3X6X6X3X",
"1X6X=X=X*X#XoXp.5.K ) =.=.-.a u t B v v c d d r : + + @ 4 < : * : < 0 4 w w p q y s p M M b G -.;.;.{ 4.e.*X6X6X6XE.6X6X",
"7X6X1X&X*X$X@Xs.5.K V =.=.-.P B B B A n v v v v 0 5 2 5 3 < > 1 0 0 0 5 p d g M v M M M N N R -.;.*.7.4. X=X6X6X3X].3X6X",
"7X5X=X*X$X$X$XXX4.4.4.A A :.E F B B B B v v v n v d d u y 5 4 5 w y w y d g c b c b M M N ..-.-.;.*.{ 4.OX=X6X6X6X6X3X6X",
"7X7X=X*X*X$X$X@Xa.4.4.4.A #.=.P B B B B f u d v b f d p y 0 5 p u d d g M b b g s b n n ) X.-.-.;.=.4.{ $X=X5X3X6X3X3X6X",
"7X7X1X*X*X$X*X=X5Xq.4.4.m 1.=.T G B G Z x z v z b d d p y q 0 p s s d g b c g d N b n A ..=.-.-.;.<.7.i.$XR.].3X3X6X3XE.",
"7X7X1X*X*X$X*X=X5Xa.{ 4.{ A A @.H S A Z Z Z G G D D c s s d d p 0 5 q s v c g d s b b F O.;.-.Q -.4.4.V.*XT.6X].6X6X6X6X",
"7X7X=X*X*X%X&X&X5XOXi.4.4.8.#.1.2.X.X...o.X...G H H U ..( d d p s p c v c c g g s D F N *.;.;.-.4.4.9.OX5X].6X6X6X3X3X6X",
"6X6X`.*X*X*X4X6X6X@X Xi.9.A %.,.$.&.&.:.,.o.X.V H H J P P C K C I U c v c c d U I o.` 4.=.;.;.;.7.4.i.$X2X5X3X5X6X3X6X6X",
"6X5X4X*X*X=X4X5X$X$XXX Xa.q.4.1.4.$.&.&.' ' ' O.R ..T T G G G H P C D D D ..o.7.N N 4.=.-.-.;.;.e.e.OX5XQ.5X].3X6X6X3X3X",
"6X3X3X4X`.1X5X5X6X6X6X{.XXXXs. .$.%.$.&.' ' ' $.@.%.%.%.-.=.*.=.-.=.=.=.=.=.=.=.*.;.-.-.;.;.7.4.V.XX*X6X_.].7X6X3X6X6X6X",
"6X6X6X5X5X5X3X6X6X6X].x.OXOXXXs.q.{ ' 1.' ' ' $.&.' 1.1.*.=.*.=.*.=.=.=.=.=.=.=.;.=.;.;.;.;.;.@.oX*X*X6X6X6X3X6X3X6X3X6X",
"3X6X6X3X6X6X].6X(.7X6X5XOXOXXX.X.XV.a.q.| | ' 1.I ' 1.1.*.m *.*.=.=.=.:.=.@.=.=.*.-.*.;.4.9.{.@X$X*X*X6X3X6X6X6X6X6X6X3X",
"].6XE.6X3X6X6XE.3X7X6X5X4X=XXX X.XXX.Xs.{ { | 2.&.' 1.1.=.*.*.=.*.=.=.:.=.=.=.=.c.i. XXX.XXX/.*X=X*X*X6X6X6X3X6X6X3X6X6X",
"3X6X6X6X3X6X6X2X3X2X].3X=X=XN.N.N.@XOX#XXXs.q.4.4.| ' 1.*.=.=.*.=.A S =.=.>.n.OX`.$X@X X XXXOXl.*X*X*X6X6X3X3X5X].6XE.6X",
"].6X3X6X6X6X3Xn.6X6X7X5X`.&X=X).*X@XOX@X@XOX.Xe.q.4.4.| :.=.*.*.*.>.B.C.XX/./.$X`.@X@XOXXXXXg.l.$X=X*X3X6X6X3XE.6X6X].3X",
"6X6X6XE.n.n.n.n.6X3X6X6X2X&X=X=X*X&X`.$X$X#X.Xi.a.e.a.s.XXXX.XA.C.C.XXZ..XoXOX@X#X$X#XOX XXX].E.=X=X=X6XE.3X6X6X6X3X6X6X",
"3X6X3Xn.n.n.D.n.n.n.6X3X=X&X=X=X=X=X=X!.$X$X#Xa.}.e.s.{.OXOXOXOXXXOXXX.XoX$X*XP.L.$XK.&X1X1X6X3X5Xn.n.n.6X6X6X3X6X3X6X3X",
"6X6X6Xn.D.D.n.3X3XD.n.6X6X6X4X&X=X).=X].6X@X#X.X X XXXOXOXOX=X`.=X&Xg.~ ! l.H.P.L.*X=X=X5X3X6Xn.n.n.D.D.n.n.n.6X3X6X6X6X",
"6X3XD.D.3X6X3X6X6X6X3X6X6X6X6X6X6X6X6X6X6XH.@X.X X3X6X=X&X=X*X=X*X=XF.4X4X&X*X*X=X*X*X).6X6X6XD.D.D.5X6X3XD.D.D.6X6X3X3X",
"3X6XD.2X5X6X6X3X6X6X3X3X7X7X7X7X6X6X3X6X5X7X7X7X6XE.5X5X=X=X*X=X*X&X4X5X4X*X*X*X=X*X`.=X6X3XD.D.D.6X6X3X6X6XD.6XD.6X6X6X",
"6X6X3X3X6X6X6X6X3X6X6X6X7X7X7X7X6X].6X6X6X6X7X7X3X6X5X=X&X=X=X=X=X=X4X5X6X=X*X&X=X*X%X=X6X6XD.6X6X3X6X6X6X3X6X3X3XD.3X6X",
"6X3X3XQ.E.6X3X6X3X6X6XE.7X7X7X7X3X6X6X3X(.7X7X7X7X5X].&X=X=X=X*X*X=X5X`.5X=X&X*X&X=X3X6X3X6X].5X3X6X3X6X6X6X].5X6X6X6X3X",
"6X6X6X3X3X6X3X6X6X3X6X7X7X7X7X7X3X6X6X6X6X7X7X7X3X3X_.C.&X=X=X=X=X4X].5X5X&X*X*X4X5X5X6X3X6X6X3X6X3X6X6X3X3X6X6X6XE.1X3X",
"3X3X6X6X7X].6X6X3X].6X6X7X7X7X7X6X6X3X6X7XE.7X7X7X7X7Xn.D.n.n.n.5X5X5X5X6X6X6X].3X3X(.3X3X6X6X6X6X5X6X].6X6XE.6X6X6X3X6X",
"6X6X6X3X6X3X3X6X6X6X6X3X7X6X7X7X6X3X7X(.7X7X7X7X7X7XD.D.7XD.D.n.n.5X6X3X6X5X3X6X].4X6X2X6X6X3X6X3X].6X5X3X6X3X3X3X6X6X3X",
"3X1XE.3X6X6X5X6X2X6XE.6XE.2X2X3X7X7X7X7X7X7X7X7X7XD.D.7X7X7X7X7X6X6XE.3X6X3X3X6X7X7X6X3X6X3X7X7X3X6X6X6X3X6X6X3X5X3X6X3X",
"1X(.5X3X3X6X6X6X6X5X].].7X6X5X(.7X7X7X7X7X7X7X7X7X7X7X7X7X7X7X7X3X3X6X6X3X6X6X6X7X6X5X6X6X5X].7X6X6X3X6X6X6X3X6X(.].6X6X"
};
