/* XPM */
static char *_16682f811ae45ceb0aaa3d4c249dc28Zn7A5XjIpt7XwPSm[] = {
/* columns rows colors chars-per-pixel */
"64 64 157 2 ",
"   c None",
".  c #4C2611",
"X  c #4F2913",
"o  c #502A13",
"O  c #562F19",
"+  c #54321D",
"@  c #5D351F",
"#  c #553421",
"$  c #5E3720",
"%  c #563926",
"&  c #5B3A26",
"*  c #563B2A",
"=  c #5D3E29",
"-  c #5F402B",
";  c #5C4531",
":  c #5E473A",
">  c #5E4A3C",
",  c #61432E",
"<  c #634632",
"1  c #654935",
"2  c #644B3A",
"3  c #694D39",
"4  c #67523D",
"5  c #69523E",
"6  c #5C4E41",
"7  c #5E5145",
"8  c #5E5449",
"9  c #635444",
"0  c #6A5344",
"q  c #675846",
"w  c #6E5C46",
"e  c #635649",
"r  c #685649",
"t  c #655A4C",
"y  c #6B5D4C",
"u  c #655D53",
"i  c #6A5E50",
"p  c #6C604F",
"a  c #676055",
"s  c #6B6154",
"d  c #6C655A",
"f  c #6F685D",
"g  c #726455",
"h  c #706659",
"j  c #726B5C",
"k  c #736D63",
"l  c #767165",
"z  c #797466",
"x  c #777368",
"c  c #7A7669",
"v  c #7D796D",
"b  c #7F7C71",
"n  c #807B6E",
"m  c #817E72",
"M  c #858275",
"N  c #848176",
"B  c #858176",
"V  c #848276",
"C  c #858276",
"Z  c #858277",
"A  c #858377",
"S  c #868376",
"D  c #868277",
"F  c #848175",
"G  c #878475",
"H  c #878576",
"J  c #868477",
"K  c #878477",
"L  c #878577",
"P  c #858175",
"I  c #888577",
"U  c #888477",
"Y  c #858378",
"T  c #868378",
"R  c #868478",
"E  c #878478",
"W  c #878578",
"Q  c #878479",
"!  c #878579",
"~  c #87857A",
"^  c #868478",
"/  c #888578",
"(  c #888579",
")  c #898579",
"_  c #888678",
"`  c #898778",
"'  c #888679",
"]  c #898679",
"[  c #898779",
"{  c #8A8778",
"}  c #8A8779",
"|  c #88857A",
" . c #88867A",
".. c #89867A",
"X. c #88867B",
"o. c #89867B",
"O. c #8A877A",
"+. c #8B877A",
"@. c #88867C",
"#. c #89877C",
"$. c #8B877C",
"%. c #8A877D",
"&. c #89867A",
"*. c #8A8878",
"=. c #8A8879",
"-. c #8B8879",
";. c #8B8979",
":. c #8A887A",
">. c #8B887A",
",. c #8B897A",
"<. c #8B897B",
"1. c #8C8879",
"2. c #8C8979",
"3. c #8C897A",
"4. c #8C897B",
"5. c #8C8A7A",
"6. c #8C8A7B",
"7. c #8A887D",
"8. c #8D8B7D",
"9. c #8C897E",
"0. c #8C897F",
"q. c #8D8A7E",
"w. c #8D8A7F",
"e. c #8E8B7E",
"r. c #8F8B7E",
"t. c #8F8B7F",
"y. c #8D897C",
"u. c #8D8B80",
"i. c #8E8B80",
"p. c #8F8B80",
"a. c #8E8C81",
"s. c #8E8C82",
"d. c #8E8C81",
"f. c #908C81",
"g. c #908D81",
"h. c #918F85",
"j. c #928F84",
"k. c #928F85",
"l. c #908E83",
"z. c #939084",
"x. c #929085",
"c. c #939085",
"v. c #939186",
"b. c #949286",
"n. c #959286",
"m. c #969387",
"M. c #939186",
"N. c #949288",
"B. c #959288",
"V. c #969388",
"C. c #979488",
"Z. c #959388",
"A. c #9A978C",
"S. c #9A978E",
"D. c #989589",
"F. c #9A988E",
"G. c #9C9990",
/* pixels */
"                                                                                                                                ",
"                                                                                                                                ",
"                                                                                                                                ",
"                                                                                                                                ",
"                                                                                                                                ",
"                                                                                                                                ",
"                                                                                                                                ",
"                                                                                                                                ",
"                                                                                                                                ",
"                                                    3 3 3 3 3 3 3 3 3 1 1 <                                                     ",
"                                                  < n m n ~ ~ o.o.I o.o.n v                                                     ",
"                                                  < J ~ I o.o.y y y o.I o.I <                                                   ",
"                                                  < I I o.I *.C.C.y *.o.o.I <                                                   ",
"                                        < < m n m < o.o.o.%.*.v.B.C.*.%.I ;.1 s m n & =                                         ",
"                                    m M M b & = = < I I *.*.*.2.n.n.*.2.o.*.1 = = & M N M M                                     ",
"                                3 3 Y Y M & I 1.1.< n 2.*.*.*.;.t.1.o.2.2.*.1 o.Q o.$ M M Y                                     ",
"                          < %.0.Y M & z z F F F *.; 5.*.*.*.5.5.2.2.0.*.*.~ - o.~ J J o.o.1 c c c - =                           ",
"                          %.Y M Y & M z z D F F *.5.b.*.5.*.5.*.0.0.2.7.*.z.N b F ~ ~ ~ o.%.$ c c c n                           ",
"                      s.s.%.Y & M M m M G G F G 5.> D.C.m.s f f f f f G.G.G.F F F J ~ ~ Q o.u.@.o n m F N                       ",
"                  - , > > %.M M M M M D G F 1.r.u % p p p s w w w w w k k k x z v.b N m v c b Y o.Y M 2 2 + +                   ",
"                  i.s.k.k.& M m M J F J 1.t.t.u p u t p p X . + # & & y k k x z c v.N.b m m m ~ M m X v.k.0.i.                  ",
"                i.M m N & M M o.~ J J s.9 8 8 t X . p q p j j j j k k l 9 7 < : x l k k S.m m m m m m o Y M M 0.                ",
"                0.m m & @.N o.o.I ~ ~ 8 8 8 8 . q q h h j j j l k z z z l 9 7 8 - k k f u m m m b m m m o M N 0.                ",
"              % v m v ~ @.~ %.k.o.v.> > 8 t t h j j j j j j j l l x l z e N b l l b b k d d | $.b m b M M m m m o               ",
"        , , - < = < = 6 2 N.h.k.z.> 6 7 q d f h j j j j j l l l l z l 7 l l l l l k l n n u t B.p.m m 3 3 1 < 1 < < < , <       ",
"      , %.u.m m m v v c c > u 9 z.> X 9 f f h h v v b b b m b m m m N 7 b m m b l l k z c # t B.6 : 0 r.1.m m m F D F F C.      ",
"      k.m M m m m m m m m m m k.7 X 7 j k j j f e q t q t t q p t y t i t p a p i l k c c c X t m f.m r.m m m 1.F F U F A.      ",
"      k.M m M m m m m m b m m b 7 X j j j j j k e 8 l l l j l l l z l l x x c p i k x k c c X u p.m m m m m m m F U F U D.      ",
"      v.M M M g g m m Y m m m v.X 7 j k c 8 k l t l l l l j l l l l z l z z l z i l l c k n n o B.m m m ) m m g y Q U D D.      ",
"      v.Y M r Y u.m Y m Y Y i.k.9 9 l k l l v > t l l l l z l z z c z c z z z l i l k l l k k l B.m m m ) ) 1.w y w 1.y.D.      ",
"      v.Y Y 9 D m m | Y Y Y 0.n.4 4 l k j l V p t l l l z z z z c z c l z z z z s l x x l l z l G.m p.m U ) ) 0 f.f.1.1.A.      ",
"      B.o.o.o.l.h.u.| | Q Q 0.n.7 7 x x l z l a p c c c b v c c c c c c l z z l g l l k x x k n S.m m p.Q ) ) f.f.r.0.1.C.      ",
"      B.o.o.o.%.o.%.*.I o.Q Y B.8 4 l c x c x m s c c c v c c z c v v z v z z z d z z l l l x x b.M ~ ~ o.o.2.2.0.0.0.2.C.      ",
"      G.s.*.o.*.o.*.o.o.o.o.o.n.4 7 x x b c c c s c c c v c v v v v v v v v v v d c z z l l f k N.J o.o.*.0.0.0.t.2.0.1.B.      ",
"      G.8.l.*.7.*.%.o.o.I o.* & o 8 c v v b c c h c c c c v c v v v v v v v v v d c c l l f f X 2 > 7.*.7.0.0.0.n z n 7.B.      ",
"      k k k a d d d 2 k.0.0.M m n - v b v b c c h c c c c v v v v z v v v v v z d c c c c f - b v n i.s.r 0 l u i i i s k       ",
"      k a a 5 4 4 , , C.Q m Y m m M 1 v v m c c h p V m Y M N Y V m V m H V V p f c c c c = v b b v n v s.0 4 4 4 9 u d k       ",
"      k a o N F v k k t C.m M M V H 8.c v m m c h h s p y i i i p p p p p 4 p j f c c c c g k N m v v l.d k b @.o.%.o a x       ",
"      X X X s.m m v v + 7 Y Y | ! ! _ s.2 v b b c V m V m Y m M V V V j f V b m v c c - h 0.M M Y m Y 6 . m m N o.s.o X X       ",
"          o s.F n v v + e k.~ m Y _ _ s.V 2 b b c c c v v v v v c c c V j c c v c c & N M M Y Y Y Y i.6 X m n M o.l.X           ",
"            e u m m m c v d B.B._ @.=.#.J V V = $ n v v v v n v v c v c c v c - - | | $.M @.~ ~ Y i.6 z l v b @.6 6             ",
"            o u i.m m 0 0 O d k 8 N.#.=.=.V M F n n 1 , 1 3 3 3 3 3 3 4 c c m n 1.1.| $.o.%.o.n.e 9 + g 2 ~ ~ i.6 .             ",
"              o d r 0 h.i.6 k k l C.;.=.;.M M F F F < 1.1.2.2.2.J M M M - - m M $.| $.$.%.o.v.e 7 7 g c c 2 > e X               ",
"                d k s.N m m n $ j j f b.*.I M M D F 5.F 2.I I D G M M M M l.D M m | | u.B.e e e * m n m c ~ 6 t                 ",
"                X x d N Y m m m + j f f n.C.I I D 5 D D U ) U D I M D D D m 2 ~ u.| B.B.t e 9 & c n n n v 6 6 X                 ",
"                  # d f s.Y Y ~ o.8.@ d d s p p n.5 1.1.U 1.1.U U j D D U U 3 B.w t r e e % c c m n n ) 6 > +                   ",
"                      d f f i.@.8.s.*.N F X o w 0 3 t.t.1.t.1.C.n.p 1.1.U D 3 1 w X X Y o.7.I n n Y 9 6 6                       ",
"                      X X f f n.n.0 N F F F c o o 3 t.t.1.1.1.w 0 z.1.1.U 1.2 o X b m Q o.o.h n %.e 6 . .                       ",
"                          o f d : x v.m m m F c c 1 8.8.8.t.r.5.0.n.0.2.o.*.2 s F m F J Y l.6 * 6 8 .                           ",
"                            . X : c d k.N.B.b c c 1 8.0.0.0.8.5.2.2.2.o.;.;.1 s m F z.z.l.8 6 * X .                             ",
"                                  X d a u u u t 9 o z l d d f d d d s k k k + ; q 9 9 9 9 > .                                   ",
"                                      X X X u t 9 X d d d d s a d s a a u u . - q 4 . . .                                       ",
"                                            X X . X d d s u u t u u u u a a . . . .                                             ",
"                                                  X 9 e e u u u u t u u u 8 .                                                   ",
"                                                    X . . . . . . . . . X .                                                     ",
"                                                                                                                                ",
"                                                                                                                                ",
"                                                                                                                                ",
"                                                                                                                                ",
"                                                                                                                                ",
"                                                                                                                                ",
"                                                                                                                                ",
"                                                                                                                                ",
"                                                                                                                                "
};
