/* XPM */
static char *_f362182ccab4d819600d4d327ff31b1RjwZ8NZRqB64JZxm[] = {
/* columns rows colors chars-per-pixel */
"60 60 77 1 ",
"  c #664766",
". c #DF755E",
"X c #E67A43",
"o c #E67C44",
"O c #E77C44",
"+ c #E46B56",
"@ c #E57259",
"# c #E8813B",
"$ c #E8803D",
"% c #E8853C",
"& c #F0A52D",
"* c #E68449",
"= c #E2864D",
"- c #E5924F",
"; c #EB9A55",
": c #F09D58",
"> c #C78C62",
", c #D19F6C",
"< c #E38965",
"1 c #DFB078",
"2 c #E0A76C",
"3 c #ECAE6C",
"4 c #EEB878",
"5 c #684580",
"6 c #79508F",
"7 c #6E4796",
"8 c #744C94",
"9 c #714A99",
"0 c #714B99",
"q c #7E5794",
"w c #76529D",
"e c #76529E",
"r c #77539E",
"t c #78539D",
"y c #852E85",
"u c #8D5F84",
"i c #944D94",
"p c #9C6580",
"a c #966C8B",
"s c #9C7491",
"d c #8A66A6",
"f c #8767AC",
"g c #8768AC",
"h c #8768AD",
"j c #8A68A8",
"k c #8868AB",
"l c #9364A2",
"z c #DB5998",
"x c #CF5DA1",
"c c #EDA19F",
"v c #DF97AF",
"b c #DA95B6",
"n c #DA95B7",
"m c #DF99B1",
"M c #D895B9",
"N c #D895BA",
"B c #D895BB",
"V c #EB8DAC",
"C c #E88EAD",
"Z c #E590AF",
"A c #E490B1",
"S c #C4A8B4",
"D c #CAB0B9",
"F c #F0C687",
"G c #B7A1C7",
"H c #BCA3C6",
"J c #BAA6CA",
"K c #BCA7CA",
"L c #BCA8CC",
"P c #B5A4D3",
"I c #B5A3D6",
"U c #B5A4D5",
"Y c #B5A5D5",
"T c #B6A4D4",
"R c #B6A5D4",
"E c #B5A4D6",
"W c #B8A5D2",
/* pixels */
"FFFFF4FFFFFFF2FFF1FFFFFFFFFFFFFFFFFFFFFFFFFFFFFFFFFFFFFFFFFF",
"FFFFFFFFFFFFFFFFFFFFFFF4FFFF4FFFFFFF2FFF2FFFFFFFFFFFFFFFFFF1",
"FFFFFFFFFFFFFFFFFFFFFFF4FFFFFF1FFFFFFFFFFFFF41FFFFFFFFF::::F",
"FFFFFFFFFFFFFFF1FFFFFF4FFFFFFFFFFFF4FFFFFFFFFFFFFF1FFF::>>FF",
"FFFFFFFFFFFFFFFFF1FFFFFFFFFFFFFFFFFFFFFFFFFFFFFFFF>FFFF>>FFF",
"FFFFFFFFF1FFFFFFFFFF1F4FFFFFFLWFFFFFFFFFFFFFFF1F141F4>FFFFFF",
"FFFFFFFFFFFF1F1FFFFFFFFFFFFFDnWnKTFFFFFFFFF4FFFFFFFFFF1F1FFF",
"FFFFFFFFFFFF4FFF1FF4FFFFFF4LNnnNNNTUFFFFFFFFFFF4FFFFFFFFFFFF",
"4FFFFFFFFFFFFFF::FFF1FFFFFFUAUiUBAUNFFFFFFFFFFFFFFFFFFFFFFFF",
"FFFFFFFFFFF1FF:>>::FFF1FFFUNNNy BA@Voc4FFFF>FFFFFFFFFFFFFFFF",
"FFFFFFFFFFFFF>>4F:F:FFFF4FUNBBA<zo+%$o&;1FFFFFFF4FFFFFFFFFFF",
"FFFFFFFFFFFFFFFFFFFF>F1FF>FUBAB<xoo&*o%FFFFFFFFFFFFFFFFFFFFF",
"1FFFFFFFFF4F4FFFFFF>FFFFF2F3ICBAE.=;;FFFFFF1FFFFFFFFFFFFFFFF",
"FFFFFFFFF>FFFFFF14FF4FFFFFFFIAIBE-FFFFF::F>4FFFFF44FFF1F4FFF",
"FFFFFFFFFFFFFFFFFFFF4FFFFFFFFBBFFFFFFF:::>>>FFFFFFFF41FFFFFF",
"FFFFFFF1FFFFFFFFF1FFFFFFFFFFFBBFFFFFF:>F>>FF>FFFFFFFFF1FFFF1",
"FFFFFFFFFFFFFFFFFF4FFFFFFF4FWCPF1FFFFFFFFFFFF>F1FFFFFFFFFFFF",
"FFFFFF44FFFFFF42FFFF1FFF1FFFFABIF4FFFFFFFF414FFFFFFFFFFFFFFF",
"FFFFFF4FFFFF1FF4FFFFFF4FFFFFFBBFFFFFFFFFFFFFF4FFFFFFFFFFFFF1",
"2F1FFFFFFFFFFFFFFFFFFFFFFFFFFBBLFFFFFFFFFFFFF4FFFFFFFFFFFFFF",
"F1FFFFFFFFFF4FF4FFFFF4FFFFFFFnALFFF1FF;;:>1F4FFFFFFFFFFFFFFF",
"FFFFFFFFFF4FFFFFFFFFFFFFFFFFFBBFFFFFF::>>4,FF4FFF4F4FFFFFFFF",
"FFFFFFFFFFFFFFFF1FFFFFFFFFFFKIBLFF1F>FF>FFFFFFFFFFFFFFFFFFFF",
"FFFFFFFFFFFsFFFFFFFFFFFFFFF4nNZTFFFFFF>4FFFFFFFFFFFFFFFFFFF4",
"FF4F1FFFFFFs5sFFFFFFFFFFFFFFmMMnFFFFFFFFFF1FFFFFFFFFFFFFFFFF",
"4FFFFFFFFFFFsgsFG4FFFF4FFFccMcMAFFF4FFFFFFFF41FFFFFFFFFFFFFF",
"FFFFFFFFF4FF4 7uI;H::FFLLWWAlMA5544FFFFF1FFFFFFF44FFFFFF:4FF",
"FFFFFFFFFFFFsg5phGU>:UUUU  hrWZk555FFFFFFFFFFFFFFFFFFF::FFFF",
"F1FFFFFFFF2Fs57 hEEGTUUU0 kjthhrjjhLYFFFFFFFFFFFFF:F:::::FFF",
"FFFFF;:F4FFs>u5dIIEPWEU5 rrLjkhrl 5LEFFFFFFFFFFFF:::::>F::4F",
"FFFF:FFFF4FsFssqTEEPE5Ehherujh5hEHL7YJF4FFFF1FFF:::>::FFF>FF",
"FFFFFFFFFFFFFFsgTJEg5 hshekhhhhYE65 YYFFFFFFFFF:F:>>4FFFFFFF",
"FFFFFFFFFFFFFFFIEE555r0qhrjUggggge5EYYFFFF4FFFFFFF4F4FFFFFFF",
"FFFFFFF14FFFFFFEEEEEger8hrrhdr55 7EULDFFFFFFFFFF4F4FFFFFF1FF",
"FFFFFFFFF1F1FFFFEr  rhhhgqgggrrj UUUFF1FFF2FFFF4FFFFF4FFF4FF",
"FFFFFFFFFFFFFFFEE5Eg7hrhfrg59t557UIUDFFFFFFFFFFFFFFFFFFFFFFF",
"FFFFFFFFFFFFFFFEg gg7grrgg95r55UhIUUFFF2FFFF4FFFFFFFFFFFFFFF",
"FFFFFFFFFFFFF>FFg57r7rr0gg5755UUIITFFFFFF4F4FFFFFFFFFF4FFFF1",
"FFF4FFFFFFFFFFF5555r7g55 55 IIUUJFFFF4F4FFFFFFFFFFFFFFF4FFFF",
"FFFFFFFFFFFFFF5555555UE57IUUIILLFFFFFFFFFFFFFF14FFFFF4FFFFFF",
"FF4FFFFFFFF4FFF505Y55555FYYEPPEFFFFFFFFFFFFFFFFFFF>4FFFFFFFF",
"FFFFFFFFF4FFFFFF FYY5LYFFYJMDEFFFFF4FFFFFFFFFFFFFFFF3F4FFFFF",
"FFFF4FFFFFFFFFFFFFKYBLFFFFPZEF1FFFFFFFFFF1FFFFFFFFFF14FFFFFF",
"FFFFFFFFFF4FFFFF2FFTAYFFFFDMY4FFFFFFFFFFFFFFFFFFFFFFFFFFFFFF",
"FFFFFF4F1FFFFFFFFFFDB>FFFFJMSFFFFFFF4FFFFFFFFFFFFFFFFFFFFFFF",
"4F1FFFF1FFFFFFFFFFDmBDFFFFDBD1FFF1FFFFFFFFF1FFFFFFFFFFFFFFFF",
"FFFFFFFFFF4FFFFFFFDmAmFFFFFBF4FFFFFFFFFFFFFFFFFFFFFFFFFF4F1F",
"4FFFFFF:FFFF4FF1FFFDBcFFFFFBFFFFFF1FFFFFFF4FFF4F4FFFFFF1FF4F",
"FFF1::::FFFFFFFFFF4FBFFFF4FBBFFFFFF4FFFFFFFFFF41FFFF1FFFFFFF",
"FFF:::>:::FFFFFFFFFDBLFFFFFAABbFFFFFFFFFF1FFFFFFF:::FFFFFFFF",
"FFF:>>:FF>:FFFFFF1FDNNBU4FFBABBbFFFFF1FFFFFFFFF:::>>:::FFFFF",
"FF>>FFFFFFFFFFFFFFFFnnANFFFFDFWBFF>FFFFFFFF1FFF>>>FFF>>>FFFF",
"FF>FFFFFFFFFFFFFFFFFFFccF1FFFFFF4FFFF4FFFF1FFF>>>FFFFF>F>FFF",
"FFFFFFFFFFFFFFFFF4FFFFFFFFFFFFFFFFFFFFFFFF4FFF>FFFFFFFFFF>FF",
"FFF11FFFFFF1FFFFFFFF2FFFFF4FFFFFFFF4FFFFFFFFFF4FFFFFFF4FFFFF",
"FFFFFFFFFFFFFFFFFFFFFFFFFF1:FFFFFF4FFFFFFFFFFFFFFFFFFFFFF1FF",
"FFFFF4FFF4FFFFFFFFFFF1FFFFF:>:::FFFFFFF4FF1FFFFFFFF4FF1FFFFF",
"FFFFFFFFFFFFFFFFFFF1FFFFFF>>F>>::FFFFFFF4FFFFFFFF4FFFFFFFFFF",
"FF2FFFFFFF1F1FFFFFFFFFFFF>>FFFFFFF1FFFFFFFFFFFFFFFFFFFFFFFFF",
"F1FFFFFFFF44FFF1FFFFFFFFFFFFFFFFFFFFFFFFFFFFFF4FFFFFFFFF14FF"
};
