/* XPM */
static char *_b4b936069f24c70afc5548881bd2c6cPX9EmoKDGFxniCho[] = {
/* columns rows colors chars-per-pixel */
"50 50 56 1 ",
"  c None",
". c #664766",
"X c #DF755E",
"o c #E67A43",
"O c #E67C44",
"+ c #E77C44",
"@ c #E67D44",
"# c #E46B56",
"$ c #E57259",
"% c #E88239",
"& c #E8813B",
"* c #E8803D",
"= c #F0A52D",
"- c #E68449",
"; c #E2864D",
": c #E38865",
"> c #E28866",
", c #684580",
"< c #6E4795",
"1 c #6E4796",
"2 c #6F4897",
"3 c #714B98",
"4 c #704A99",
"5 c #714B99",
"6 c #744E9C",
"7 c #76519D",
"8 c #76529D",
"9 c #76529E",
"0 c #77539E",
"q c #852E85",
"w c #944D94",
"e c #8564AA",
"r c #8667AC",
"t c #8767AC",
"y c #8768AC",
"u c #8768AD",
"i c #9262A2",
"p c #DB5998",
"a c #CF5DA1",
"s c #DD92B7",
"d c #D993B9",
"f c #D894BA",
"g c #D895BA",
"h c #D895BB",
"j c #EA8DAC",
"k c #EB8DAC",
"l c #E88EAD",
"z c #E48FB0",
"x c #E58FB0",
"c c #E490B1",
"v c #F0C687",
"b c #B5A3D5",
"n c #B5A3D6",
"m c #B5A4D5",
"M c #B5A5D5",
"N c #B5A4D6",
/* pixels */
"                                                  ",
"                       mb                         ",
"                      bdbdmm                      ",
"                     mggdghgmm                    ",
"                     mcmwnhcmd                    ",
"                    mgggq.hc$k+k                  ",
"                    mgggc>p+#&*+=&                ",
"                     mglh>ao+=-+&v                ",
"                      mlhcb$;&%v                  ",
"                      mcnhb-                      ",
"                       gh                         ",
"                       gh                         ",
"                      mlm                         ",
"                       lhm                        ",
"                       gh                         ",
"                       ghN                        ",
"                       dxN                        ",
"                       hh                         ",
"                      mbgm                        ",
"     1                dgcm                        ",
"     1,1              gghd                        ",
"      1e2 m          kdkhs                        ",
"       ,,1m m    NNNNdihl,,                       ",
"      1r,2yNm  NmNm,,r7blr,,,                     ",
"      1,,,rnnnnnnn<.ue7uu7eeubN                   ",
"     1 1,ennNnnnN,,07meyu02,,bm                   ",
"     1 141NNNNN,Nry372ey,ummN,mN                  ",
"        4uNNNy.<e1y7yyyyubm1,,bb                  ",
"         NNN,<.041y8ymyyuuu7,mbb                  ",
"         NNNnNu702e87ty7,,,,mmNm                  ",
"          n9.,7eyyy2yyr76e,mmm                    ",
"         NN.nr2y7yy7u,47,,,mbNm                   ",
"         my,ye2r70yy5,7,,NymNN                    ",
"          y,,72705yy,,,,NNbmm                     ",
"         ,,,,72y,,,,,,mmmmN                       ",
"        ,,,,,,,mm,,mmmmNNN                        ",
"         ,,,m,,,,, mmmmmm                         ",
"          , mm,Nm  mNgmm                          ",
"            mmhm    mcm                           ",
"             mcm    mgm                           ",
"             mh     mgm                           ",
"            mshm    mgm                           ",
"            mscs     g                            ",
"             mgl     g                            ",
"              g      gg                           ",
"             mgm     clgs                         ",
"             mgggm   dcggd                        ",
"              ggxd    m bg                        ",
"                kk                                ",
"                                                  "
};
