/* XPM */
static char *bc98eafd1a7d4c638b4ff19cf9c53df9Gfdidqa4MzDit0AV[] = {
/* columns rows colors chars-per-pixel */
"60 60 56 1 ",
"  c None",
". c #664766",
"X c #DF755E",
"o c #E67A43",
"O c #E67C44",
"+ c #E77C44",
"@ c #E67D44",
"# c #E46B56",
"$ c #E57259",
"% c #E88239",
"& c #E8813B",
"* c #E8803D",
"= c #F0A52D",
"- c #E68449",
"; c #E2864D",
": c #E38865",
"> c #E28866",
", c #684580",
"< c #6E4795",
"1 c #6E4796",
"2 c #6F4897",
"3 c #714B98",
"4 c #704A99",
"5 c #714B99",
"6 c #744E9C",
"7 c #76519D",
"8 c #76529D",
"9 c #76529E",
"0 c #77539E",
"q c #852E85",
"w c #944D94",
"e c #8564AA",
"r c #8667AC",
"t c #8767AC",
"y c #8768AC",
"u c #8768AD",
"i c #9262A2",
"p c #DB5998",
"a c #CF5DA1",
"s c #DD92B7",
"d c #D993B9",
"f c #D894BA",
"g c #D895BA",
"h c #D895BB",
"j c #EA8DAC",
"k c #EB8DAC",
"l c #E88EAD",
"z c #E48FB0",
"x c #E58FB0",
"c c #E490B1",
"v c #F0C687",
"b c #B5A3D5",
"n c #B5A3D6",
"m c #B5A4D5",
"M c #B5A5D5",
"N c #B5A4D6",
/* pixels */
"                                                            ",
"                                                            ",
"                                  nn                        ",
"                                nndnddNN                    ",
"                               NhhhhgghhNNN                 ",
"                               NccnwmmhzNNd                 ",
"                              Nghhhq.,gx$$k++k              ",
"                              Nghhhc>>p@##%**+=%%           ",
"                              Nghhhz::p@##%**@=%%           ",
"                               Nhhxg::aoOO=--@%vv           ",
"                                NNkgczmX;;%%%v              ",
"                                mmcbhhm%                    ",
"                                  gg                        ",
"                                  gg                        ",
"                                NNkb                        ",
"                                NNkb                        ",
"                                  khmm                      ",
"                                  hh                        ",
"                                  hhNN                      ",
"                                  dxNN                      ",
"                                  gg                        ",
"                                NNbgNN                      ",
"                                NNbgNN                      ",
"         11                     ddgcNN                      ",
"         11,1                   hfhhdd                      ",
"           1e11 NN             kddkhss                      ",
"            ,,,1NN N      NNNNNdiihk,,,                     ",
"           1y,,1uuNN   NNNNN,,,e88bxtt,,,,                  ",
"           1,,,,uuNNNNNNNNN,,,ye88tu99eettNNN               ",
"           1,,,<uuNNNNNNNNN,,,ye88tu98eettNNN               ",
"         11 1,.uNNNNNNnnNm,,088Neeyy992,,<NNN               ",
"         11 11<<mNNNNNN.mmtu3381ety,yynnnn.NNN              ",
"             11tmmNnuu,,re2u88tyyyyynnm1,,,nnn              ",
"               NmmN.,,,0442t00tbyyyyttt9,,mnnn              ",
"               NmmNNNNu9002t868tyt8.,,,<mmmNNN              ",
"               NNNNNNNu9081t888tyt6<,,,.mmmNNN              ",
"                NN8.,,9ettuu11uytt66te,NNNN                 ",
"               NNN,Ntt2u88tt88u,448,,,,NbbNNN               ",
"               Nyy,tee2u888tuu3,88,,nNyNNNN                 ",
"                yy,,6940603tuu,,,,,nnnbNbb                  ",
"               ,,,,,004u,,,,,,<.mmmNNNN                     ",
"             ,,,,,,,,,,Nnn,,nnnNNNNNNN                      ",
"             ,,,,,,,,,,Nmm<,nmmNNNNNNN                      ",
"               ,,,,N,,,,,,. mmmNmmNN                        ",
"                ,, NNN.NmN  NNNgmmm                         ",
"                   NNNhN      Nzmm                          ",
"                    NNcN      NgNN                          ",
"                    NNg       NgmN                          ",
"                   NssgN      Ngmm                          ",
"                   NssgN      Ngmm                          ",
"                   Nsszs       g                            ",
"                    mNgk       g                            ",
"                      g        ggg                          ",
"                    NNgN       ckkgd                        ",
"                    NNggggN    dccgggg                      ",
"                      dgxxd     mm bdg                      ",
"                      ddxxd     mN Ngd                      ",
"                        kkk                                 ",
"                                                            ",
"                                                            "
};
