/* XPM */
static char *_444afe6f4524656a4e42025f38998665TD6ENdh5dybkUCo[] = {
/* columns rows colors chars-per-pixel */
"60 60 8 1 ",
"  c #F09D58",
". c #C78C62",
"X c #D19F6C",
"o c #DFB078",
"O c #E0A76C",
"+ c #ECAE6C",
"@ c #EEB878",
"# c #F0C687",
/* pixels */
"#####@#######O###o##########################################",
"#######################@####@#######O###o##################o",
"#######################@######o#############@o#########    #",
"###############o######@############@##############o###  ..##",
"#################o################################.####..###",
"#########o##########o#@#######################o#o@o#@.######",
"############o#o#################@##########o##########o#o###",
"############@###o##@######@####################@############",
"@##############  ###o#######################################",
"###########o## ..  ###o###########o#@#@####.################",
"#############..@# # ####@######@o##@####o#######@###########",
"####################.#o##.##########o#######################",
"o#########@#@######.#####o#+###############o################",
"#########.######o@##@############o#####  #.@#####@@###o#@###",
"####################o########o########   ...########@o######",
"#######o#########o################### .#..##.#########o####o",
"##################@#######@##@##o############.#o############",
"######@@######@o####o###o########@########@o@###############",
"######@#####o##@######@######################@#############o",
"o#O##########################o###############@##############",
"#o##########@##@#####@#############o##   .o#@###############",
"##########@###################@######  ..@X##@###@#@########",
"################o###########o#####o#.##.####################",
"###########################@###o######.@###################@",
"##@#o#######@#############################o#################",
"@###############.o####@###@@#######@########@o##############",
"#########@##@##.     ############@o#####o#######@@###### @##",
"###############  ...     @############################  ####",
"#o########O##. #..#.#..  #O#+..################### #     ###",
"#####  #@###..######....####..  o###@############     .#  @#",
"#### ####@#############..##.       ####@####o###   .  ###.##",
"#################o######     # .... @########## # ..@#######",
"####################+###.  ######...######@#######@#@#######",
"#######o@###########@###########################@#@######o##",
"#########o#o######@o###.###########@##o###o####@#####@###@##",
"###############o############################################",
"#####################+###########o#####o####o###############",
"#############.######@####################@#@##########@####o",
"###@############################@####@#@###############@####",
"####################@#########################o@#####@######",
"##@########@######################################.@########",
"#########@############@############@################+#@#####",
"####@##############@##########o##########o##########o@######",
"##########@#####o####@#######@##############################",
"######@#o############.######o#######@#######################",
"@#o####o#####################o###o#########o################",
"##########@########@#@#######o##########################@#o#",
"@###### ####@##o###########@######o#######@###@#@######o##@#",
"###o    ##########@######@#o#######@##########@o####o#######",
"###   .   ###############################o#######   ########",
"### .. ##. ######o#@####@######o#####o#########   ..   #####",
"##..###################@##########.########o###...###...####",
"##.######################o######@####@####o###...#####.#.###",
"#################@########################@###.##########.##",
"###Oo######o########o#####@########@##########@#######@#####",
"##########################o ######@######################o##",
"#####@###@###########o##### .   #######@##o########@##o#####",
"###################o######..#..  #######@########@##########",
"##o#######o#o############..#######o#########################",
"#o########@@###o##############################@#########o@##"
};
