/* XPM */
static char *_b79f51ceba94beefc9fe23415a6e584FxvJSLHQH0K3OXJl[] = {
/* columns rows colors chars-per-pixel */
"60 60 25 1 ",
"  c #381F14",
". c #572B18",
"X c #754D35",
"o c #9A5A3C",
"O c #9C593C",
"+ c #9C5A3C",
"@ c #9E5B3D",
"# c #9B5C3D",
"$ c #9D5C3E",
"% c #9E5F41",
"& c #9F6041",
"* c #A16243",
"= c #A76544",
"- c #A76746",
"; c #AF714D",
": c #BE895D",
"> c #C08A5E",
", c #F09D58",
"< c #C78C62",
"1 c #CB9868",
"2 c #DFB078",
"3 c #E0A76C",
"4 c #ECAE6C",
"5 c #EEB878",
"6 c #F0C687",
/* pixels */
"666665666666636662666666666666666666666666666666666666666666",
"666666666666666666666665666656666666366626666666666666666662",
"6666666666666666666666656666662666666666666652666666666,,,,6",
"666666666666666266666656666666666665666666666666662666,,<<66",
"66666666666666666266666666666666666666666666666666<6666<<666",
"66666666626666666666265666666666666666666666662625265<666666",
"666666666666262666666666666666665666666666626666666666262666",
"666666666666566626656666665666666666666666666665666666666666",
"566666666666666,,6662666666666666666666666666666666666666666",
"66666666666266,<<,,666266666666666265656666<6666666666666666",
"6666666666666<<56,6,6666566666652665666626666666566666666666",
"66666666666666666666<6266<6666666666266666666666666666666666",
"2666666666565666666<6666626466666666666666626666666666666666",
"666666666<66666625665666666666666266666,,6<56666655666265666",
"66666666666666666666266666666266666666,,,<<<6666666652666666",
"6666666266666666626666666666666666666,<6<<66<666666666266662",
"666666666666666666566666665665662666666666666<65666666666666",
"666666556666665266662666266666666566666666525666666666666666",
"666666566666266566666656666666666666666666666566666666666662",
"26366666666666666666666666666266666666   .666566666666666666",
"6266666666665665666665666666666666626  &&  65666666666666666",
"6666666666566666666666666666665666666 &XX&  6566656566666666",
"666666666666666626666666666626666626  +& O; 6666666666666666",
"666666666666666666666666666566626666  +..+&+ 666666666666665",
"66562666666656666666666666666666666 -.++++ . 666666666666666",
"5666666666666666<266665666556666666 ++.++;+ 5266666666666666",
"666666666566566<,,,,,666 .  666665  .++.+  6666655666666,566",
"666666666666666,,<<<,,  && %  6666 +.+++ 6666666666666,,6666",
"6266666666366<,6<<6<  O++.++.% :1 .O+.. .666666666,6,,,,,666",
"66666,,65666<<666666 ..++.++.++   O.+++ 666666666,,,,,<6,,56",
"6666,66665666666666 ++.++.++.++++.++.++.66662666,,,<,,666<66",
"666666666666666662  ++.++.+++.+++.+++.+ 6666666,6,<<56666666",
"666666666666666666 .o++.+.++++.+++.+++. 66566666665656666666",
"666666625666666666 ..++..    +.+++.+++- 66666666565666666266",
"666666666262666666++.o++ 6666 .++++.+- 666266665666665666566",
"66666666666666626 &#+.+ 6666666  ++*.  666666666666666666666",
"6666666666666666> .+++. 666666666    66266662666666666666666",
"6666666666666<6   ..+++ 666666666666666665656666666666566662",
"66656666666666 *.++..++ 666666665666656566666666666666656666",
"6666666666666 =+..+++...666666666666666666666625666665666666",
"6656666666656 ..+.++++. 66666666666666666666666666<566666666",
"6666666665666 ..+o.+$-- 666666666665666666666666666646566666",
"66665666666666 ..o..--  666666266666666662666666666625666666",
"666666666656666  .+o.  6666665666666666666666666666666666666",
"666666562666666;      66666626666666566666666666666666666666",
"562666626666666666666666666662666266666666626666666666666666",
"666666666656666666656566666662666666666666666666666666665626",
"5666666,6666566266666666666566666626666666566656566666626656",
"6662,,,,6666666666566666656266666665666666666652666626666666",
"666,,,<,,,666666666666666666666666666666626666666,,,66666666",
"666,<<,66<,666666265666656666662666662666666666,,,<<,,,66666",
"66<<666666666666666666656666666666<666666662666<<<666<<<6666",
"66<6666666666666666666666266666656666566662666<<<66666<6<666",
"6666666666666666656666666666666666666666665666<6666666666<66",
"666226666662666666662666665666666665666666666656666666566666",
"666666666666666666666666662,66666656666666666666666666666266",
"666665666566666666666266666,<,,,6666666566266666666566266666",
"66666666666666666662666666<<6<<,,666666656666666656666666666",
"6626666666262666666666666<<666666626666666666666666666666666",
"626666666655666266666666666666666666666666666656666666662566"
};
