/* XPM */
static char *f6cd480252c84c26ac75edb84ebcfe738KJRmDpXnInTU6CE[] = {
/* columns rows colors chars-per-pixel */
"64 64 121 2 ",
"   c None",
".  c #4F2A13",
"X  c #4F311A",
"o  c #54321C",
"O  c #553720",
"+  c #563923",
"@  c #5B3C25",
"#  c #5C422C",
"$  c #5F4632",
"%  c #5E4A35",
"&  c #534A3D",
"*  c #604732",
"=  c #604E3A",
"-  c #615749",
";  c #635A4B",
":  c #685E4E",
">  c #665E50",
",  c #695F50",
"<  c #676051",
"1  c #6A6354",
"2  c #6E6856",
"3  c #6E6758",
"4  c #6F6958",
"5  c #746E5E",
"6  c #75705F",
"7  c #766F60",
"8  c #767060",
"9  c #7B7464",
"0  c #7C7866",
"q  c #7D7668",
"w  c #827E6E",
"e  c #817D6D",
"r  c #817B6E",
"t  c #837E70",
"y  c #847E70",
"u  c #84806F",
"i  c #85806F",
"p  c #858171",
"a  c #868170",
"s  c #868271",
"d  c #878271",
"f  c #878272",
"g  c #878373",
"h  c #888374",
"j  c #888474",
"k  c #898474",
"l  c #888475",
"z  c #898475",
"x  c #898575",
"c  c #8A8575",
"v  c #8A8675",
"b  c #888476",
"n  c #898476",
"m  c #898576",
"M  c #8A8576",
"N  c #8B8777",
"B  c #8C8776",
"V  c #8D8776",
"C  c #8C8777",
"Z  c #8C8877",
"A  c #8D8877",
"S  c #8B8778",
"D  c #8C8778",
"F  c #8C8878",
"G  c #8D8878",
"H  c #8D8978",
"J  c #8C8879",
"K  c #8D8879",
"L  c #8D8979",
"P  c #8E8878",
"I  c #8E8978",
"U  c #8E8979",
"Y  c #8E8A79",
"T  c #8C887B",
"R  c #8C897B",
"E  c #8E897A",
"W  c #8E8A7A",
"Q  c #8F8A7A",
"!  c #8F8A7B",
"~  c #8F8B7B",
"^  c #8C897C",
"/  c #8E8B7F",
"(  c #8C887B",
")  c #908B7B",
"_  c #908C7C",
"`  c #918C7C",
"'  c #918C7D",
"]  c #918D7D",
"[  c #928C7D",
"{  c #928D7D",
"}  c #938E7D",
"|  c #928D7E",
" . c #918E7E",
".. c #928E7E",
"X. c #948E7E",
"o. c #8F8C80",
"O. c #918C80",
"+. c #908D80",
"@. c #918D80",
"#. c #908D81",
"$. c #928D81",
"%. c #918E81",
"&. c #918D82",
"*. c #908E83",
"=. c #938E84",
"-. c #938F84",
";. c #928F86",
":. c #949083",
">. c #959183",
",. c #949085",
"<. c #959284",
"1. c #969284",
"2. c #969285",
"3. c #949186",
"4. c #949288",
"5. c #96948B",
"6. c #97958B",
"7. c #99968D",
"8. c #9A968D",
"9. c #9B988F",
"0. c #9C988F",
/* pixels */
"                                                                                                                                ",
"                                                                                                                                ",
"                                                                                                                                ",
"                                                                                                                                ",
"                                                                                                                                ",
"                                                                                                                                ",
"                                                                                                                                ",
"                                                                                                                                ",
"                                                                                                                                ",
"                                                                                                                                ",
"                                                                                                                                ",
"                                                                                                                                ",
"                                                                                                                                ",
"                                                                                                                                ",
"                                                                                                                                ",
"                                                                                                                                ",
"                                                                                                                                ",
"                                                                                                                                ",
"                                                            $ $ $ $ *                                                           ",
"                                            $ 5 7 t t t t t y t q t q t                                                         ",
"                                          # 5 8 y y t t y r r r t t > 1 $                                                       ",
"                                        # 5 5 5 y y F ~ y r r r t - - 1 1 $                                                     ",
"                                        5 5 6 6 y F ) F F b f w q - - 3 3 1                                                     ",
"                                        6 6 6 6 ,.F D F F g M t t q q q 1 3 * * *                                               ",
"                                      e 5 5 5 5 1 1 1 3 F F F F ( q r 9 9 r 9 9 r 9                                             ",
"                                    # e w w 8 7 1 1 1 1 O.F ) F D D F q r 9 9 9 9 9 * * *                                       ",
"                                  # e e w w O.F S S S 7 8 9 ,.F ~ F F b k k r 9 g d d g 9 9 *                                   ",
"                                  e e e w O.N M S D D D 8 9 9 :.~ F ) b k k k y d g Z Z D 9 9                                   ",
"                              # 9 6 7 2 O.$.S S S S F F F M M M ) ` X.` k b k k F F ) Z N M > > #                               ",
"                              # 7 2 1 2 $.D S D D D F D D M M ` ` ` ` ` X.X.) ) ) F Z Z F > > > #                               ",
"                              # 9 2 2 5 O.M S S D D D b S M ~ ` ` ` X.` ) X.X.) ) F Z Z O.: > : >                               ",
"                              M V # 5 4 5 5 D D S D b b b b ,.` ` O.$.) X.O.) ) ` ` F 9.; - - & & +                             ",
"                            # j j M % 5 5 4 ;.o.*.;.:.j j N <./ O.X...` ..` :.` ) ) 8.; ; = - & & o                             ",
"                          @ 4 j j j M & 5 6 - ; - - ; ; 5.6.<.1.:.` ` 1.1.0.5 5 6 6 : : : : - & & X                             ",
"                          @ 7 4.j j b b 8 - - ; ; ; ; < 1 2 7.4.` X.` 1.0.7 5 5 6 : : : : - - & &                               ",
"                          + 8 1 3 :.o.o.^ O ; - < < 1 < 1 1 4 6 6 d d j , < 5 7 # 6 6 2 : : ; X                                 ",
"                            O 3 3 3 1 - ; o & < < < < < 1 6 4 6 5 5 g < < , 1 @ 0 9 9 6 1 & O                                   ",
"                              o X 1 ; ; ; o & < < < < < 1 5 8 6 5 5 d , < < @ r 9 9 6 0 9 & o                                   ",
"                                  o O X     o o < < 1 < 4 4 2 6 5 5 : : @ i i i i i 0 0 & & o                                   ",
"                                                o < < 1 4 4 4 4 5 5 : : ` i e d w p f *.& & O                                   ",
"                                                        o o 2 2 2 : : + 5 / O.O.~ ^ ; ; ; & &                                   ",
"                                                            o o o : : @ 5 5 5 5 ^ :.- ; ; & &                                   ",
"                                                                      @ 5 5 5 4 - - ; - .                                       ",
"                                                                      . 5 5 4 4 - - - .                                         ",
"                                                                        . . . . . .                                             ",
"                                                                                                                                ",
"                                                                                                                                ",
"                                                                                                                                ",
"                                                                                                                                ",
"                                                                                                                                ",
"                                                                                                                                ",
"                                                                                                                                ",
"                                                                                                                                ",
"                                                                                                                                ",
"                                                                                                                                ",
"                                                                                                                                ",
"                                                                                                                                ",
"                                                                                                                                ",
"                                                                                                                                ",
"                                                                                                                                ",
"                                                                                                                                ",
"                                                                                                                                ",
"                                                                                                                                ",
"                                                                                                                                "
};
