/* XPM */
static char *_8b3e8afaf7e452cc73be02372b34f97qAsJcwZFeakIbl2T[] = {
/* columns rows colors chars-per-pixel */
"60 60 112 2 ",
"   c #665C56",
".  c #695E58",
"X  c #6B605A",
"o  c #6D6159",
"O  c #71645C",
"+  c #75665E",
"@  c #77685F",
"#  c #776860",
"$  c #7A6A61",
"%  c #7D6C63",
"&  c #816F64",
"*  c #816F65",
"=  c #837166",
"-  c #847166",
";  c #857267",
":  c #877367",
">  c #897467",
",  c #8A7466",
"<  c #897468",
"1  c #8D776A",
"2  c #8E796B",
"3  c #8F796C",
"4  c #907A6C",
"5  c #927C6E",
"6  c #947D6F",
"7  c #9A7F6F",
"8  c #9B826F",
"9  c #9B836F",
"0  c #9E826F",
"q  c #998172",
"w  c #9E8270",
"e  c #9E8372",
"r  c #9E8570",
"t  c #9E8473",
"y  c #9F8574",
"u  c #AC856B",
"i  c #BB8B67",
"p  c #B2896B",
"a  c #B68B6A",
"s  c #A18572",
"d  c #A38775",
"f  c #A28872",
"g  c #A58971",
"h  c #A68A77",
"j  c #A78C77",
"k  c #A88B72",
"l  c #A88B77",
"z  c #A98B77",
"x  c #A98C76",
"c  c #A68A78",
"v  c #A88C79",
"b  c #AB8D79",
"n  c #AA8D7B",
"m  c #AC8F7B",
"M  c #AD917A",
"N  c #AE907C",
"B  c #B69273",
"V  c #B09177",
"C  c #B39377",
"Z  c #B69677",
"A  c #BA9572",
"S  c #B1937C",
"D  c #B3937E",
"F  c #B3947F",
"G  c #B5957E",
"H  c #B4947F",
"J  c #BB9A78",
"K  c #E59A5B",
"L  c #F09D58",
"P  c #C18B63",
"I  c #C78C62",
"U  c #C48F6A",
"Y  c #D19B70",
"T  c #E39C63",
"R  c #C4A37E",
"E  c #CFA67D",
"W  c #D9AB75",
"Q  c #DFAE75",
"!  c #D0A67B",
"~  c #D6AA7B",
"^  c #D7AA7D",
"/  c #DFB078",
"(  c #E0A76C",
")  c #ECAE6C",
"_  c #E1B07B",
"`  c #EEB878",
"'  c #B59580",
"]  c #B89780",
"[  c #B99881",
"{  c #BB9A83",
"}  c #BD9B83",
"|  c #BC9C83",
" . c #BE9D83",
".. c #BD9B84",
"X. c #BD9C84",
"o. c #BF9E84",
"O. c #C19F84",
"+. c #C2A282",
"@. c #C3A084",
"#. c #CAA881",
"$. c #CBA984",
"%. c #CFAA85",
"&. c #D0AD82",
"*. c #D1AD85",
"=. c #D5B082",
"-. c #D9B383",
";. c #D8B285",
":. c #E1BA83",
">. c #E3BB86",
",. c #E5BD84",
"<. c #E9C087",
"1. c #F0C687",
/* pixels */
"1.1.1.1.1.` 1.1.1.1.1.1.1.( 1.1.1./ 1.1.1.1.1.1.1.1.1.1.1.1.1.1.1.1.1.1.1.1.1.1.1.1.1.1.1.1.1.1.1.1.1.1.1.1.1.1.1.1.1.1.",
"1.1.1.1.1.1.1.1.1.1.1.1.1.1.1.1.1.1.1.1.1.1.1.` 1.1.1.1.` 1.1.1.1.1.1.1.( 1.1.1./ 1.1.1.1.1.1.1.1.1.1.1.1.1.1.1.1.1.1./ ",
"1.1.1.1.1.1.1.1.1.1.1.1.1.1.1.1.1.1.1.1.1.1.1.` 1.1.1.1.1.1./ 1.1.1.1.1.1.1.1.1.1.1.1.1.` / 1.1.1.1.1.1.1.1.1.L L L L 1.",
"1.1.1.1.1.1.1.1.1.1.1.1.1.1.1./ 1.1.1.1.1.1.` 1.1.1.1.1.1.1.1.1.1.1.1.` 1.1.1.1.1.1.1.1.1.1.1.1.1.1./ 1.1.1.L L I I 1.1.",
"1.1.1.1.1.1.1.1.1.1.1.1.1.1.1.1.1./ 1.1.1.1.1.1.1.1.1.1.1.1.1.1.1.1.1.1.1.1.1.1.1.1.1.1.1.1.1.1.1.1.I 1.1.1.1.I I 1.1.1.",
"1.1.1.1.1.1.1.1.1./ 1.1.1.1.1.1.1.1.1.1./ 1.` 1.1.1.1.1.1.1.1.1.1.1.1.1.1.1.1.1.1.1.1.1.1.1./ 1./ ` / 1.` I 1.1.1.1.1.1.",
"1.1.1.1.1.1.1.1.1.1.1.1./ 1./ 1.1.1.1.1.1.1.1.1.1.1.1.1.1.1.1.1.` 1.1.1.1.1.1.1.1.1.1./ 1.1.1.1.1.1.1.1.1.1./ 1./ 1.1.1.",
"1.1.1.1.1.1.1.1.1.1.1.1.` 1.1.1./ 1.1.` 1.1.1.1.1.1.` 1.1.1.1.1.1.1.1.1.1.1.1.1.1.1.1.1.1.1.1.` 1.1.1.1.1.1.1.1.1.1.1.1.",
"` 1.1.1.1.1.1.1.1.1.1.1.1.1.1.L L 1.1.1./ 1.1.1.1.1.1.1.1.1.1.1.1.1.1.1.1.1.1.1.1.1.1.1.1.1.1.1.1.1.1.1.1.1.1.1.1.1.1.1.",
"1.1.1.1.1.1.1.1.1.1.1./ 1.1.L I I L L 1.1.1./ 1.1.1.1.1.1.1.1.1.1.1./ 1.` 1.` 1.1.1.1.I 1.1.1.1.1.1.1.1.1.1.1.1.1.1.1.1.",
"1.1.1.1.1.1.1.1.1.1.1.1.1.I I ` 1.L 1.L 1.1.1.1.` 1.1.1.1.1.1.` / 1.1.` 1.1.1.1.Q 1.1.1.1.1.1.1.` 1.1.1.1.1.1.1.1.1.1.1.",
"1.1.1.1.1.1.1.1.1.1.1.1.1.1.1.1.1.1.1.1.I 1./ 1.1.I 1.1.1.1.1.1.1.1.1.1./ 1.1.1.1.1.1.1.1.1.1.1.1.1.1.1.1.1.1.1.1.1.1.1.",
"/ 1.1.1.1.1.1.1.1.1.` 1.` 1.1.1.1.1.1.I 1.1.1.1.1./ 1.) 1.1.1.1.1.1.1.1.1.1.1.1.1.1.1.Q 1.1.1.1.1.1.1.1.1.1.1.1.1.1.1.1.",
"1.1.1.1.1.1.1.1.1.I 1.1.1.1.1.1./ ` 1.1.` 1.1.1.1.1.1.1.1.1.1.1.1._ 1.1.1.1.1.L L 1.I ` 1.1.1.1.1.` ` 1.1.1./ 1.` 1.1.1.",
"1.1.1.1.1.1.1.1.1.1.1.1.1.1.1.1.1.1.1.1./ 1.1.1.1.1.1.1.1./ 1.1.1.1.1.1.>.;.T T T U I I 1.1.1.1.1.1.1.1.` / 1.1.1.1.1.1.",
"1.1.1.1.1.1.1./ 1.1.1.1.1.1.1.1.1./ 1.1.1.1.1.1.1.:.1.1.1.1.1.1.1.,.;.*.,.T U >.I U >.>.P 1.1.1.1.1.1.1.1.1./ 1.1.1.1./ ",
"1.1.1.1.1.1.1.1.1.1.1.1.1.1.1.1.1.1.` 1.1.>.>.=.>.  _ >.>._ >.;.E %.%.&.X.x X. .J @.    ;.I 1._ 1.1.1.1.1.1.1.1.1.1.1.1.",
"1.1.1.1.1.1.` ` 1.1.1.1.1.1.` _ 1.1.1.>.E ;.=.O   @     =.>.;.$.%.        w             B ;.>.>.1.1.1.1.1.1.1.1.1.1.1.1.",
"1.1.1.1.1.1.` 1.1.1.1.1._ <.1.` 1.1.;.    O   +           X.[       z ..          q w     ^ ;.>.1.1.1.1.1.1.1.1.1.1.1./ ",
"_ 1.( 1.1.1.1.1.1.1.1.1.1.1.<.,.1.;.$.  O } 6 t   % O 6   . X.......X.w O   O o w c w w   [ C >.;.1.1.1.1.1.1.1.1.1.1.1.",
"1._ 1.1.1.1.1.1.1.1.1.1.` ,.1.` *.$.    H ......% % % ..6 X...........  O   7 7 j > s 7 .     Z ;.>.1.1.1.1.1.1.1.1.1.1.",
"1.1.1.1.1.1.1.1.1.1.` 1.,.>.>.C w   . @...[ ....% c % ; 6 X.........O O d   w 3 d 0 w 0       b 1.! 1.` 1.1.1.1.1.1.1.1.",
"1.1.1.1.1.1.1.1.1.1.1.1.1.C w &.w 7 7 w 6 [ ......% c X...........l ....t 7 < d c = D * w + '     ;.>.1.1.1.1.1.1.1.1.1.",
"1.1.1.1.1.1.1.1.1.1.1.1.Z *.  . o J < w ............[ ' ..............' ..w ..d ' % - d -           -.1.1.1.1.1.1.1.1.` ",
"1.1.` 1._ 1.1.1.1.1.1.1.w w w . o + w w - D ......4 ' ..............' ..........% ' ..% b > O w       1.1.1.1.1.1.1.1.1.",
"` 1.1.1.1.1.1.1.1.1.1.;.w     w w   w c % % ....' D 6 6 6 ' ............................% D 3           >.1.1.1.1.1.1.1.",
"1.1.1.1.1.1.1.1.1.` >.*.    w w     % % % c c n 1 6 ..' ............6 ....................j - s         >.1.1.1.L ` 1.1.",
"1.1.1.1.1.1.1.1.1.1.>.  ....      7 w % % % % ; % ..c ..6 ..' ............% ..q ........c D w s [           L L 1.1.1.1.",
"1._ 1.1.1.1.1.1.1.1.R . O.z w   < w w w % % % % % % % % ..6 ..........c ' c ' ............w D ........        L L 1.1.1.",
"1.1.1.1.1.L L 1.` :.  ] ....  o l w < < 3   % % % % % % % 6 ........' ..; % l ..............y ..j z .... .Y   1.L L ` 1.",
"1.1.1.1.L 1.1.1.:.Q   q ....d     ..w + o   + % w % % % ..........6 ......l ..' ..........d +     ......[ Y   ;.1.I 1.1.",
"1.1.1.1.1.1.1.1.>.t ............b , 1   ..5 $ #   ..% ..' ............6 6 4 ........' ......      ........}     1.1.1.1.",
"1.1.1.1.<.<.-.&.t  .X.c X.6 ..' ....]   , , ..' < ; - ....................' ..6 4 X.............} } } ....] ..  $.<.1.1.",
"1.1.1.1.>.R *.!   H c % % ..6 ......................' ..6 6 ..................' ' ..6 ....[ .... . .....X.[ ..    / 1.1.",
"1.1.1.~ #.#.  .   % % % ........................................................6 ........} ..' D ' D '         w s 1.1.",
"1.1.-.R O.s . 7 9 5 % X.............................' ........................6 ....% ..5 D l M ' M .     w w w   . 1.1.",
"1.1.,.j z  .w * [ z ..% ........................' ..............................X.% % % M 3 M X .       g w w         1.",
"1.1.x | +.0 < w w c 1 - ......................' ' ..6 ..X.' ....................% % % % % + . X . % %   7 7 ..w       / ",
"<.  G  . .  0 w % % % [ m D 6 ..............X.X.6 ............................' X.% % % . . w = + O + w D 0 0 s g @.  1.",
"o 9 G  .}     % % % % % 5 ..................] 6 ....% ..5 ..' ..............q ......%   . , % % w c c - 4 7 7 w z [   1.",
"    w ....... w % % % 0 H H H  .........[ ....' X.% % % [ 6 ....................N 5 3 O - s w c % c % % ..< D s X.@.    ",
"1.  w ....6       % w q s  .] } ..X...[ ] ' j N % % % % % + ......] ..] ....{ { ' ..    < < c % % ..% ......X.....1.    ",
"1.    w ......6 + - w f     0 [ ' D ....g j [ .   % % % # ..............' X...D X.w d 0 s % % % ..............[ [     1.",
"<.w   w w .........   + +         w ] w . . + +   . %   O   ......  D 7 . . # ..X...  D 7 + % X.............    b     1.",
"@.w     0 t  .} 0                         # w   # $ # d %   # ... c     ..O X.........c     O % ......w  .0 O       1.1.",
"A *.w     0 0               0 0         +     % w $ . % $ j w n w     ......% ......#     d + $   ] d N l @     O.<.1.1.",
"1.1.w w       s     w     w     w w         % % %   % % % % % =   c ..........c ..$ O .     } d D D +   O    .&.` 1._ 1.",
"` 1.1.<.,.1.J i <.                        % % % % % % % % % +   % ; % ......c ..n d + O     w   c O.1.%.*.1.1._ 1.1.` 1.",
"1.1.1._ L L L L J 9       9     0 0     .   % % $ % % % % % + % c % % % ..% ......% ' y     c } ,.1.J J Q 1.1.1.1.1.1.1.",
"1.1.1.L L L I L L L k s       0     0 > w w 0 % 8 0 % % %   q w % % c D D ........X.w     { ..@.1.L L L 1.1.1.1.1.1.1.1.",
"1.1.1.L I I L 1.1.I L 1.      s 0   0 0 w > < = w w w % . + < < w % b < 6 < ....X.. '     c @.L L L I I L L L 1.1.1.1.1.",
"1.1.I I 1.1.1.1.1.1.1.1.1.k             w 0 0 7 w % - , w w w < < ; 0 D s - # ..# %         1.I I I 1.1.1.I I I 1.1.1.1.",
"1.1.I 1.1.1.1.1.1.1.1.1.1.1.1.k                         t , > 0 w '   # + w t c   # +     J u I I 1.1.1.1.1.I 1.I 1.1.1.",
"1.1.1.1.1.1.1.1.1.1.1.1.1.1.1.1.1.W -.x         z g     0 0 w s w             O   w w 1.1.1.I 1.1.1.1.1.1.1.1.1.1.I 1.1.",
"1.1.1.( _ 1.1.1.1.1.1./ 1.1.1.1.1.1.1.1._ 1.>.  o                     w           J 1.1.1.1.` 1.1.1.1.1.1.1.` 1.1.1.1.1.",
"1.1.1.1.1.1.1.1.1.1.1.1.1.1.1.1.1.1.1.1.1.1.1.,.<.>.~                         O.1.1.1.1.1.1.1.1.1.1.1.1.1.1.1.1.1./ 1.1.",
"1.1.1.1.1.` 1.1.1.` 1.1.1.1.1.1.1.1.1.1.1.Q 1.1.1.1.1.L I i a p           ..O.` 1.1./ 1.1.1.1.1.1.1.1.` 1.1./ 1.1.1.1.1.",
"1.1.1.1.1.1.1.1.1.1.1.1.1.1.1.1.1.1.1._ 1.1.1.1.1.1.I I 1.I I K L J J 1.1.1.1.1.` 1.1.1.1.1.1.1.1.` 1.1.1.1.1.1.1.1.1.1.",
"1.1._ 1.1.1.1.1.1.1./ 1./ 1.1.1.1.1.1.1.1.1.1.1.1.I I 1.1.1.1.1.1.1./ 1.1.1.1.1.1.1.1.1.1.1.1.1.1.1.1.1.1.1.1.1.1.1.1.1.",
"1.Q 1.1.1.1.1.1.1.1.` ` 1.1.1./ 1.1.1.1.1.1.1.1.1.1.1.1.1.1.1.1.1.1.1.1.1.1.1.1.1.1.1.1.1.1.` 1.1.1.1.1.1.1.1.1./ ` 1.1."
};
