/* XPM */
static char *_f93bbabeb6d413fa445c08c168cc0c2l9XURgTx2DccBKbw[] = {
/* columns rows colors chars-per-pixel */
"32 32 6 1 ",
"  c None",
". c black",
"X c #120A0A",
"o c #233C3C",
"O c #1B5252",
"+ c #667575",
/* pixels */
"                                ",
"                                ",
"                                ",
"                                ",
"                                ",
"                                ",
"                                ",
"                                ",
"                                ",
"                                ",
"                                ",
"         ..++++++OO++..         ",
"         ..++++++OO++..         ",
"       ....+++OOOO++++....      ",
"       ....+++OOOO++++....      ",
"     ..++++++++++++++++++..     ",
"     ..++++++++++++++++++..     ",
"      ..++XXXX++++XXXXXX++..    ",
"      ..++XXXX++++XXXXXX++..    ",
"     ..++++XXXX++++XX++++..     ",
"     ..++++XXXX++++XX++++..     ",
"     ..++++XX+++++XXXX++++..    ",
"     ..++++XX+++++XXXX++++..    ",
"     ..++++++++++++++++++..     ",
"     ..++++++++++++++++++..     ",
"     ..++OO++++OO++++OOOO..     ",
"     ..++OO++++OO++++OOOO..     ",
"     ..OOOOOOOOOO++OOOO++..     ",
"     ..OOOOOOOOOO++OOOO++..     ",
"     ..OO++++++OO++++++++..     ",
"     ..OO++++++OO++++++++..     ",
"                                ",
"                                "
};
