/* XPM */
static char *cf61542fed544186d06088749ff0381amtbzvCyjiO3eqmjF[] = {
/* columns rows colors chars-per-pixel */
"64 64 248 2 ",
"   c None",
".  c #4E2913",
"X  c #4F2913",
"o  c #502A13",
"O  c #512B13",
"+  c #512B14",
"@  c #522B14",
"#  c #502B16",
"$  c #522C14",
"%  c #532C14",
"&  c #532C15",
"*  c #502D17",
"=  c #512D17",
"-  c #542D15",
";  c #542E15",
":  c #562F16",
">  c #572F16",
",  c #502D18",
"<  c #532D18",
"1  c #522E18",
"2  c #573016",
"3  c #55311A",
"4  c #55311B",
"5  c #53311D",
"6  c #55311C",
"7  c #57341F",
"8  c #5A351E",
"9  c #573621",
"0  c #583723",
"q  c #583824",
"w  c #583925",
"e  c #5E3B25",
"r  c #5B3C27",
"t  c #553B2B",
"y  c #553D2E",
"u  c #5C3E29",
"i  c #5D3E29",
"p  c #5D3E2A",
"a  c #5D3F2A",
"s  c #5E3F2B",
"d  c #543F30",
"f  c #543F31",
"g  c #57402F",
"h  c #5F412C",
"j  c #5E402D",
"k  c #5D412E",
"l  c #5E412E",
"z  c #5E422E",
"x  c #5E422F",
"c  c #5F432F",
"v  c #564030",
"b  c #554032",
"n  c #574332",
"m  c #564535",
"M  c #584333",
"N  c #5E4331",
"B  c #5E4432",
"V  c #544539",
"C  c #57473A",
"Z  c #56463B",
"A  c #57473B",
"S  c #58483C",
"D  c #60422E",
"F  c #60432E",
"G  c #62432E",
"H  c #62442F",
"J  c #604430",
"K  c #614430",
"L  c #624531",
"P  c #634531",
"I  c #624632",
"U  c #634732",
"Y  c #644733",
"T  c #644833",
"R  c #654833",
"E  c #654A35",
"W  c #664A35",
"Q  c #664A36",
"!  c #684A35",
"~  c #624A39",
"^  c #624A3A",
"/  c #674B38",
"(  c #634C3D",
")  c #634E3F",
"_  c #684C38",
"`  c #5F594F",
"'  c #5F5950",
"]  c #61574B",
"[  c #62574C",
"{  c #62584C",
"}  c #63584D",
"|  c #615A52",
" . c #625B53",
".. c #635B53",
"X. c #635C53",
"o. c #635D53",
"O. c #645D53",
"+. c #635C54",
"@. c #645C54",
"#. c #645D54",
"$. c #645D55",
"%. c #655D55",
"&. c #645E54",
"*. c #665E56",
"=. c #666056",
"-. c #676057",
";. c #686057",
":. c #6D6354",
">. c #6C6456",
",. c #6D6456",
"<. c #676159",
"1. c #686158",
"2. c #696158",
"3. c #696258",
"4. c #696259",
"5. c #68625A",
"6. c #69625A",
"7. c #6A635A",
"8. c #6B635A",
"9. c #6D6358",
"0. c #6A645A",
"q. c #6B645A",
"w. c #6B645B",
"e. c #6B655B",
"r. c #6E6759",
"t. c #6C655B",
"y. c #6E665A",
"u. c #6A645C",
"i. c #6B645C",
"p. c #6B655D",
"a. c #6B665E",
"s. c #6C655D",
"d. c #6D655D",
"f. c #6C665C",
"g. c #6D665C",
"h. c #6C665D",
"j. c #6D665D",
"k. c #6D675D",
"l. c #6F675C",
"z. c #6C665E",
"x. c #6C675F",
"c. c #6D675F",
"v. c #6E685A",
"b. c #6D685D",
"n. c #6E685D",
"m. c #6E685E",
"M. c #6F685E",
"N. c #6E695E",
"B. c #6F695F",
"V. c #70675C",
"C. c #70695C",
"Z. c #70695E",
"A. c #70695F",
"S. c #706A5F",
"D. c #6E6860",
"F. c #6F6A60",
"G. c #706A60",
"H. c #706B60",
"J. c #706A61",
"K. c #706B61",
"L. c #726B61",
"P. c #736B61",
"I. c #716C61",
"U. c #736D60",
"Y. c #726C61",
"T. c #736C61",
"R. c #716C62",
"E. c #736C62",
"W. c #736C64",
"Q. c #736E64",
"!. c #746D64",
"~. c #746E64",
"^. c #756E64",
"/. c #746F64",
"(. c #746E65",
"). c #746F65",
"_. c #756F65",
"`. c #766F65",
"'. c #756F66",
"]. c #767065",
"[. c #777065",
"{. c #777066",
"}. c #777366",
"|. c #79746A",
" X c #7B766D",
".X c #7F7A6F",
"XX c #817B6F",
"oX c #817C70",
"OX c #817D73",
"+X c #837D72",
"@X c #837E74",
"#X c #838176",
"$X c #868479",
"%X c #878579",
"&X c #888478",
"*X c #888579",
"=X c #88867A",
"-X c #89867A",
";X c #89877B",
":X c #8B867B",
">X c #8A877B",
",X c #8B877C",
"<X c #8A887B",
"1X c #8A887D",
"2X c #8C8A80",
"3X c #8C8A81",
"4X c #8D8B81",
"5X c #8E8B81",
"6X c #8F8D81",
"7X c #8E8C82",
"8X c #8F8D84",
"9X c #908C82",
"0X c #908D82",
"qX c #918D83",
"wX c #918E82",
"eX c #918F84",
"rX c #918F85",
"tX c #928E84",
"yX c #908E86",
"uX c #918F87",
"iX c #929087",
"pX c #939087",
"aX c #939187",
"sX c #949187",
"dX c #939188",
"fX c #949188",
"gX c #949288",
"hX c #949289",
"jX c #969389",
"kX c #96928A",
"lX c #96938A",
"zX c #979489",
"xX c #97948C",
"cX c #96948D",
"vX c #97948D",
"bX c #98948D",
"nX c #98958D",
"mX c #99968C",
"MX c #99978D",
"NX c #9A988F",
"BX c #9B988F",
"VX c #999790",
"CX c #9E9B94",
"ZX c #9F9B94",
"AX c #9E9C94",
"SX c #9F9C95",
"DX c #A19E96",
"FX c #A29F97",
/* pixels */
"                                                                                                                                ",
"                                                                                                                                ",
"                                                                                                                                ",
"                                                                                                                                ",
"                                                                                                                                ",
"                                                                                                                                ",
"                                                                                                                                ",
"                                                                                                                                ",
"                                                                                                                                ",
"                                                                                                                                ",
"                                                                                                                                ",
"                                                                                                                                ",
"                                                                                                                                ",
"                                                                                                                                ",
"                                                                                                                                ",
"                                                                                                                                ",
"                                                                                                                                ",
"                                                                                                                                ",
"                                                                                                                                ",
"                                                          _ sXuX>X>X8                                                           ",
"                                                        BXBXzXsX>X>XXXg.                                                        ",
"                                                      ! BXBXsXsX>X>XXXg.H                                                       ",
"                                                G 0X>X:XBXFX[.}.!.S.0XV.&X$X7XG                                                 ",
"                                                ! 9X>X:XFX[.}.}.S.!.Z.+X>X>XyXP                                                 ",
"                                                / 0X>X<X[.!.S.S.!.S.Y.[.$X>XyXH                                                 ",
"                                                e CXCXSX!.!.S.!.[.S.Y.^.zXkXkXz                                                 ",
"                                                ; OXn.Z.G.G.~ ~ Q ) Z.Z.Y.g.OXO                                                 ",
"                                                ; XXn.c.~ ~ ~ >X,X) B B c.0.OXO                                                 ",
"                                                ; |.c.v.} 2 2 !.Y.2 ; { 9.9.F.+                                                 ",
"                                                  ; Y.c.c.n.n.{ } g.0.0.<.c.+                                                   ",
"                                                    ; ^.g.c.9.0.0.0.9.<.Y.$                                                     ",
"                                                    & ^.M g -.y t 9.b b F.O                                                     ",
"                                                    $ W.M ^.b G.f *.m F.G.+                                                     ",
"                                                    6 Y.A 9.A S S &.V ^.F.<                                                     ",
"                                              i h h 6 F.^.9. X^.W.&.n.&.F.9 < < X                                               ",
"                                            h 7X$Xw 1 F.&.+.| +.&.| +.' n.w X >.1Xw                                             ",
"                                            P 7X$Xr 7 n.+.+.| | ' ` ' ' h.z X g.1Xw                                             ",
"                                            P 0X>Xu }.q s N N z N z N u u v.$ >.1Xw                                             ",
"                                            T 0X>XG cXmXcX4X2X4X4X8XyXyXcXcX5 v.1Xw                                             ",
"                                            T iX$XY g.c.h.h.h.c.D.D.h.u.9.0.5 n.1Xw                                             ",
"                                            Q mX>XU c.h.h.0.i.h.h.h.5.<.<.<.k Y.;Xw                                             ",
"                                            Q mX>X>XP P c N N z k k k N k z #X#X1Xw                                             ",
"                                            h AXCXCXkXkXkXaXaXaXdXyXyXdXyXdXVXVXVXw                                             ",
"                                            $ W.<.9.-.>.*.*.&.&.+.+.+.&.+.+.&.c.D.X                                             ",
"                                            $ $ $ + + + O X X X X X X X X X X X X X                                             ",
"                                                                                                                                ",
"                                                                                                                                ",
"                                                                                                                                ",
"                                                                                                                                ",
"                                                                                                                                ",
"                                                                                                                                ",
"                                                                                                                                ",
"                                                                                                                                ",
"                                                                                                                                ",
"                                                                                                                                ",
"                                                                                                                                ",
"                                                                                                                                ",
"                                                                                                                                ",
"                                                                                                                                ",
"                                                                                                                                ",
"                                                                                                                                ",
"                                                                                                                                ",
"                                                                                                                                ",
"                                                                                                                                "
};
